STARTFONT 2.1
COMMENT
COMMENT Converted from OpenType font "Patriot-Regular.otf" by "otf2bdf 3.0".
COMMENT
FONT -FreeType-Patriot-Medium-R-Normal--19-140-100-100-P-95-ISO10646-1
SIZE 14 100 100
FONTBOUNDINGBOX 31 25 -7 -5
STARTPROPERTIES 19
FOUNDRY "FreeType"
FAMILY_NAME "Patriot"
WEIGHT_NAME "Medium"
SLANT "R"
SETWIDTH_NAME "Normal"
ADD_STYLE_NAME ""
PIXEL_SIZE 19
POINT_SIZE 140
RESOLUTION_X 100
RESOLUTION_Y 100
SPACING "P"
AVERAGE_WIDTH 95
CHARSET_REGISTRY "ISO10646"
CHARSET_ENCODING "1"
FONT_ASCENT 19
FONT_DESCENT 3
COPYRIGHT "Copyright © 2020 by Behalf Studio. All rights reserved."
_OTF_FONTFILE "Patriot-Regular.otf"
_OTF_PSNAME "Patriot-Regular"
ENDPROPERTIES
CHARS 426
STARTCHAR 0020
ENCODING 32
SWIDTH 360 0
DWIDTH 7 0
BBX 0 0 0 0
BITMAP
ENDCHAR
STARTCHAR 0021
ENCODING 33
SWIDTH 205 0
DWIDTH 4 0
BBX 3 14 1 0
BITMAP
40
40
40
40
40
40
40
40
40
00
00
40
E0
E0
ENDCHAR
STARTCHAR 0022
ENCODING 34
SWIDTH 257 0
DWIDTH 5 0
BBX 4 5 1 9
BITMAP
90
90
90
90
90
ENDCHAR
STARTCHAR 0023
ENCODING 35
SWIDTH 617 0
DWIDTH 12 0
BBX 10 14 1 0
BITMAP
1880
1980
1180
1180
1180
7FC0
3100
3100
3300
FFC0
2300
2300
6200
6200
ENDCHAR
STARTCHAR 0024
ENCODING 36
SWIDTH 514 0
DWIDTH 10 0
BBX 9 17 1 -2
BITMAP
0800
3C00
7E00
6B00
6B00
6800
7800
3C00
0E00
0F00
0B00
C980
CB00
7F00
3E00
0800
0800
ENDCHAR
STARTCHAR 0025
ENCODING 37
SWIDTH 874 0
DWIDTH 17 0
BBX 15 14 1 0
BITMAP
3818
6C10
C630
C660
C640
7C80
1180
0100
027C
0646
0CC6
08C6
1846
307C
ENDCHAR
STARTCHAR 0026
ENCODING 38
SWIDTH 617 0
DWIDTH 12 0
BBX 11 14 1 0
BITMAP
1C00
7F00
6300
4000
4000
6000
3FE0
7FE0
C0C0
C0C0
C180
C180
7F00
3E00
ENDCHAR
STARTCHAR 0027
ENCODING 39
SWIDTH 154 0
DWIDTH 3 0
BBX 1 5 1 9
BITMAP
80
80
80
80
80
ENDCHAR
STARTCHAR 0028
ENCODING 40
SWIDTH 308 0
DWIDTH 6 0
BBX 4 17 1 -2
BITMAP
10
30
60
60
40
C0
C0
80
80
80
C0
C0
40
40
60
20
30
ENDCHAR
STARTCHAR 0029
ENCODING 41
SWIDTH 308 0
DWIDTH 6 0
BBX 4 17 1 -2
BITMAP
C0
40
60
20
30
10
10
10
10
10
10
10
30
20
20
60
C0
ENDCHAR
STARTCHAR 002A
ENCODING 42
SWIDTH 411 0
DWIDTH 8 0
BBX 7 7 1 7
BITMAP
10
10
D6
FC
28
6C
40
ENDCHAR
STARTCHAR 002B
ENCODING 43
SWIDTH 514 0
DWIDTH 10 0
BBX 9 9 1 2
BITMAP
0800
0800
0800
0800
FF80
0800
0800
0800
0800
ENDCHAR
STARTCHAR 002C
ENCODING 44
SWIDTH 257 0
DWIDTH 5 0
BBX 3 3 1 -2
BITMAP
60
40
C0
ENDCHAR
STARTCHAR 002D
ENCODING 45
SWIDTH 411 0
DWIDTH 8 0
BBX 7 1 1 4
BITMAP
FE
ENDCHAR
STARTCHAR 002E
ENCODING 46
SWIDTH 205 0
DWIDTH 4 0
BBX 3 3 1 0
BITMAP
40
E0
E0
ENDCHAR
STARTCHAR 002F
ENCODING 47
SWIDTH 360 0
DWIDTH 7 0
BBX 5 14 1 0
BITMAP
08
08
18
18
10
10
30
20
20
60
60
40
40
C0
ENDCHAR
STARTCHAR 0030
ENCODING 48
SWIDTH 668 0
DWIDTH 13 0
BBX 12 14 1 0
BITMAP
0F00
3FC0
60E0
C060
C030
C030
8030
8030
8030
C030
C030
6060
39C0
1F80
ENDCHAR
STARTCHAR 0031
ENCODING 49
SWIDTH 257 0
DWIDTH 5 0
BBX 4 14 1 0
BITMAP
30
30
F0
30
30
30
30
30
30
30
30
30
30
30
ENDCHAR
STARTCHAR 0032
ENCODING 50
SWIDTH 514 0
DWIDTH 10 0
BBX 9 14 1 0
BITMAP
3C00
7F00
C300
C180
C180
0100
0300
0600
0E00
1C00
3800
7000
7F80
FF80
ENDCHAR
STARTCHAR 0033
ENCODING 51
SWIDTH 514 0
DWIDTH 10 0
BBX 9 14 1 0
BITMAP
FF00
FF00
0600
1800
3000
7E00
6700
0300
0180
0180
0180
0300
E700
7C00
ENDCHAR
STARTCHAR 0034
ENCODING 52
SWIDTH 514 0
DWIDTH 10 0
BBX 10 14 0 0
BITMAP
0380
0F80
3980
3180
6180
6180
C180
C180
FFC0
FFC0
0180
0180
0180
0180
ENDCHAR
STARTCHAR 0035
ENCODING 53
SWIDTH 514 0
DWIDTH 10 0
BBX 9 14 1 0
BITMAP
7F00
FF00
C000
C000
C000
FE00
E700
0180
0180
0180
0180
4300
E700
7E00
ENDCHAR
STARTCHAR 0036
ENCODING 54
SWIDTH 565 0
DWIDTH 11 0
BBX 10 14 1 0
BITMAP
0600
0C00
1800
1800
3E00
7F80
61C0
C0C0
C0C0
C0C0
C0C0
C0C0
7380
3F00
ENDCHAR
STARTCHAR 0037
ENCODING 55
SWIDTH 411 0
DWIDTH 8 0
BBX 8 14 1 0
BITMAP
FF
FF
06
06
04
0C
FE
18
18
10
30
30
60
60
ENDCHAR
STARTCHAR 0038
ENCODING 56
SWIDTH 565 0
DWIDTH 11 0
BBX 9 14 1 0
BITMAP
1C00
3E00
6300
6300
6300
3E00
6300
C180
8080
8080
8080
C180
7700
3E00
ENDCHAR
STARTCHAR 0039
ENCODING 57
SWIDTH 565 0
DWIDTH 11 0
BBX 10 14 1 0
BITMAP
1E00
7F00
E180
C0C0
80C0
80C0
C0C0
C180
7380
3F00
0700
0600
0C00
1800
ENDCHAR
STARTCHAR 003A
ENCODING 58
SWIDTH 205 0
DWIDTH 4 0
BBX 3 9 1 0
BITMAP
E0
E0
00
00
00
00
40
E0
E0
ENDCHAR
STARTCHAR 003B
ENCODING 59
SWIDTH 257 0
DWIDTH 5 0
BBX 3 11 1 -2
BITMAP
60
60
00
00
00
00
00
00
60
40
C0
ENDCHAR
STARTCHAR 003C
ENCODING 60
SWIDTH 514 0
DWIDTH 10 0
BBX 9 8 1 2
BITMAP
0180
0F00
3C00
E000
E000
3C00
0780
0080
ENDCHAR
STARTCHAR 003D
ENCODING 61
SWIDTH 514 0
DWIDTH 10 0
BBX 9 5 1 4
BITMAP
FF80
0000
0000
0000
FF80
ENDCHAR
STARTCHAR 003E
ENCODING 62
SWIDTH 514 0
DWIDTH 10 0
BBX 9 8 1 2
BITMAP
C000
7000
1E00
0380
0380
1E00
F000
8000
ENDCHAR
STARTCHAR 003F
ENCODING 63
SWIDTH 411 0
DWIDTH 8 0
BBX 6 14 1 0
BITMAP
38
7C
CC
04
0C
18
10
30
30
30
00
20
30
30
ENDCHAR
STARTCHAR 0040
ENCODING 64
SWIDTH 771 0
DWIDTH 15 0
BBX 14 14 1 0
BITMAP
07C0
1870
2010
4008
47C8
CCCC
88C8
88C8
8CD8
CF70
4000
6010
3830
0FE0
ENDCHAR
STARTCHAR 0041
ENCODING 65
SWIDTH 514 0
DWIDTH 10 0
BBX 10 14 1 0
BITMAP
3C00
7E00
C300
C300
C300
C300
C300
C300
C300
C300
C300
C300
FFC0
FFC0
ENDCHAR
STARTCHAR 0042
ENCODING 66
SWIDTH 565 0
DWIDTH 11 0
BBX 10 14 1 0
BITMAP
7E00
7F80
61C0
60C0
60C0
60C0
FF80
FF80
60C0
60C0
60C0
60C0
7F80
7F00
ENDCHAR
STARTCHAR 0043
ENCODING 67
SWIDTH 668 0
DWIDTH 13 0
BBX 12 14 1 0
BITMAP
0F80
3FE0
7070
6000
C000
C000
C000
8000
C000
C000
E000
7030
3CE0
1FC0
ENDCHAR
STARTCHAR 0044
ENCODING 68
SWIDTH 617 0
DWIDTH 12 0
BBX 11 14 1 0
BITMAP
F800
FF00
C380
C0C0
C060
C060
C060
C060
C060
C060
C0C0
C1C0
FF80
FE00
ENDCHAR
STARTCHAR 0045
ENCODING 69
SWIDTH 462 0
DWIDTH 9 0
BBX 10 14 0 0
BITMAP
3E00
3E00
3000
3000
3000
3000
FF00
FF00
3000
3000
3000
3000
3FC0
3FC0
ENDCHAR
STARTCHAR 0046
ENCODING 70
SWIDTH 411 0
DWIDTH 8 0
BBX 9 14 0 0
BITMAP
3F80
3F80
3000
3000
3000
3000
3000
FF80
3000
3000
3000
3000
3000
3000
ENDCHAR
STARTCHAR 0047
ENCODING 71
SWIDTH 822 0
DWIDTH 16 0
BBX 15 14 1 0
BITMAP
0F80
1FE0
7070
6000
C000
C000
C3FE
83FE
C00C
C00C
E018
7038
3CF0
1FC0
ENDCHAR
STARTCHAR 0048
ENCODING 72
SWIDTH 514 0
DWIDTH 10 0
BBX 10 14 0 0
BITMAP
30C0
30C0
30C0
30C0
30C0
30C0
FFC0
FFC0
30C0
30C0
30C0
30C0
30C0
30C0
ENDCHAR
STARTCHAR 0049
ENCODING 73
SWIDTH 154 0
DWIDTH 3 0
BBX 5 15 -1 0
BITMAP
20
F8
30
30
00
00
00
30
30
30
30
30
30
30
30
ENDCHAR
STARTCHAR 004A
ENCODING 74
SWIDTH 462 0
DWIDTH 9 0
BBX 7 14 1 0
BITMAP
0E
0E
06
06
06
06
06
06
06
06
06
86
CC
F8
ENDCHAR
STARTCHAR 004B
ENCODING 75
SWIDTH 514 0
DWIDTH 10 0
BBX 10 14 0 0
BITMAP
3180
3180
3180
3180
3180
3300
FF00
FF80
3180
3080
30C0
30C0
30C0
30C0
ENDCHAR
STARTCHAR 004C
ENCODING 76
SWIDTH 411 0
DWIDTH 8 0
BBX 7 14 1 0
BITMAP
C0
C0
C0
C0
C0
C0
C0
C0
C0
C0
C0
C0
FE
FE
ENDCHAR
STARTCHAR 004D
ENCODING 77
SWIDTH 822 0
DWIDTH 16 0
BBX 16 14 0 0
BITMAP
4003
E0C3
78E3
7CF3
6EDF
63CF
61C7
60C3
60C3
60C3
60C3
60C3
60C3
60C3
ENDCHAR
STARTCHAR 004E
ENCODING 78
SWIDTH 514 0
DWIDTH 10 0
BBX 9 14 0 0
BITMAP
4180
E180
7980
7D80
6F80
6380
6180
6180
6180
6180
6180
6180
6180
6180
ENDCHAR
STARTCHAR 004F
ENCODING 79
SWIDTH 771 0
DWIDTH 15 0
BBX 14 14 1 0
BITMAP
0F80
1FE0
7030
6018
C00C
C00C
C00C
800C
C00C
C00C
E018
7038
3CF0
1FC0
ENDCHAR
STARTCHAR 0050
ENCODING 80
SWIDTH 514 0
DWIDTH 10 0
BBX 11 14 0 0
BITMAP
3E00
3F80
20C0
2040
2060
2040
20C0
FF80
FF00
2000
2000
2000
2000
2000
ENDCHAR
STARTCHAR 0051
ENCODING 81
SWIDTH 771 0
DWIDTH 15 0
BBX 14 14 1 0
BITMAP
0F80
1FE0
7030
6018
C00C
C00C
C00C
800C
C00C
C00C
E078
7078
3CF8
1FD8
ENDCHAR
STARTCHAR 0052
ENCODING 82
SWIDTH 565 0
DWIDTH 11 0
BBX 11 14 0 0
BITMAP
3E00
3F80
30C0
3060
3060
3060
30C0
FF80
FF80
30C0
30C0
30C0
30C0
30C0
ENDCHAR
STARTCHAR 0053
ENCODING 83
SWIDTH 462 0
DWIDTH 9 0
BBX 8 14 1 0
BITMAP
3C
7E
C6
C3
C0
70
38
1E
06
03
83
C3
E6
7E
ENDCHAR
STARTCHAR 0054
ENCODING 84
SWIDTH 462 0
DWIDTH 9 0
BBX 9 14 0 0
BITMAP
FF80
FF80
0C00
0C00
0C00
0C00
0C00
0C00
0C00
0C00
0C00
0C00
0C00
0C00
ENDCHAR
STARTCHAR 0055
ENCODING 85
SWIDTH 462 0
DWIDTH 9 0
BBX 8 14 1 0
BITMAP
C3
C3
C3
C3
C3
C3
C3
C3
C3
C3
C3
C3
66
7C
ENDCHAR
STARTCHAR 0056
ENCODING 86
SWIDTH 462 0
DWIDTH 9 0
BBX 8 14 0 0
BITMAP
C3
C3
C3
C3
C3
C3
C3
C3
C3
43
63
66
3E
1C
ENDCHAR
STARTCHAR 0057
ENCODING 87
SWIDTH 771 0
DWIDTH 15 0
BBX 14 14 0 0
BITMAP
C30C
C30C
C30C
C30C
C30C
C30C
C30C
C30C
C30C
438C
638C
6798
3ED8
1C70
ENDCHAR
STARTCHAR 0058
ENCODING 88
SWIDTH 514 0
DWIDTH 10 0
BBX 8 14 1 0
BITMAP
C3
C3
C3
C3
C3
7E
7E
67
C3
C3
C3
C3
C3
C3
ENDCHAR
STARTCHAR 0059
ENCODING 89
SWIDTH 462 0
DWIDTH 9 0
BBX 8 14 1 0
BITMAP
C3
C3
C3
C3
C3
C3
C3
C3
C7
7E
38
18
18
18
ENDCHAR
STARTCHAR 005A
ENCODING 90
SWIDTH 462 0
DWIDTH 9 0
BBX 9 14 0 0
BITMAP
7F80
7F80
0180
0300
0600
0600
0C00
0C00
1800
3800
3000
6000
7F80
FF80
ENDCHAR
STARTCHAR 005B
ENCODING 91
SWIDTH 205 0
DWIDTH 4 0
BBX 3 19 1 -3
BITMAP
E0
80
80
80
80
80
80
80
80
80
80
80
80
80
80
80
80
80
E0
ENDCHAR
STARTCHAR 005C
ENCODING 92
SWIDTH 360 0
DWIDTH 7 0
BBX 5 14 1 0
BITMAP
C0
C0
40
60
60
20
20
30
30
10
18
18
08
08
ENDCHAR
STARTCHAR 005D
ENCODING 93
SWIDTH 205 0
DWIDTH 4 0
BBX 3 19 1 -3
BITMAP
E0
60
60
60
60
60
60
60
60
60
60
60
60
60
60
60
60
60
E0
ENDCHAR
STARTCHAR 005E
ENCODING 94
SWIDTH 462 0
DWIDTH 9 0
BBX 7 5 1 7
BITMAP
18
38
2C
44
C6
ENDCHAR
STARTCHAR 005F
ENCODING 95
SWIDTH 514 0
DWIDTH 10 0
BBX 8 1 1 -2
BITMAP
FF
ENDCHAR
STARTCHAR 0060
ENCODING 96
SWIDTH 154 0
DWIDTH 3 0
BBX 3 2 0 15
BITMAP
C0
60
ENDCHAR
STARTCHAR 0061
ENCODING 97
SWIDTH 514 0
DWIDTH 10 0
BBX 10 14 1 0
BITMAP
3C00
7E00
C300
C300
C300
C300
C300
C300
C300
C300
C300
C300
FFC0
FFC0
ENDCHAR
STARTCHAR 0062
ENCODING 98
SWIDTH 565 0
DWIDTH 11 0
BBX 10 14 1 0
BITMAP
7E00
7F80
61C0
60C0
60C0
60C0
FF80
FF80
60C0
60C0
60C0
60C0
7F80
7F00
ENDCHAR
STARTCHAR 0063
ENCODING 99
SWIDTH 668 0
DWIDTH 13 0
BBX 12 14 1 0
BITMAP
0F80
3FE0
7070
6000
C000
C000
C000
8000
C000
C000
E000
7030
3CE0
1FC0
ENDCHAR
STARTCHAR 0064
ENCODING 100
SWIDTH 617 0
DWIDTH 12 0
BBX 11 14 1 0
BITMAP
F800
FF00
C380
C0C0
C060
C060
C060
C060
C060
C060
C0C0
C1C0
FF80
FE00
ENDCHAR
STARTCHAR 0065
ENCODING 101
SWIDTH 462 0
DWIDTH 9 0
BBX 10 14 0 0
BITMAP
3E00
3E00
3000
3000
3000
3000
FF00
FF00
3000
3000
3000
3000
3FC0
3FC0
ENDCHAR
STARTCHAR 0066
ENCODING 102
SWIDTH 411 0
DWIDTH 8 0
BBX 9 14 0 0
BITMAP
3F80
3F80
3000
3000
3000
3000
3000
FF80
3000
3000
3000
3000
3000
3000
ENDCHAR
STARTCHAR 0067
ENCODING 103
SWIDTH 822 0
DWIDTH 16 0
BBX 15 14 1 0
BITMAP
0F80
1FE0
7070
6000
C000
C000
C3FE
83FE
C00C
C00C
E018
7038
3CF0
1FC0
ENDCHAR
STARTCHAR 0068
ENCODING 104
SWIDTH 514 0
DWIDTH 10 0
BBX 10 14 0 0
BITMAP
30C0
30C0
30C0
30C0
30C0
30C0
FFC0
FFC0
30C0
30C0
30C0
30C0
30C0
30C0
ENDCHAR
STARTCHAR 0069
ENCODING 105
SWIDTH 154 0
DWIDTH 3 0
BBX 5 15 -1 0
BITMAP
20
F8
30
30
00
00
00
30
30
30
30
30
30
30
30
ENDCHAR
STARTCHAR 006A
ENCODING 106
SWIDTH 462 0
DWIDTH 9 0
BBX 7 14 1 0
BITMAP
0E
0E
06
06
06
06
06
06
06
06
06
86
CC
F8
ENDCHAR
STARTCHAR 006B
ENCODING 107
SWIDTH 514 0
DWIDTH 10 0
BBX 10 14 0 0
BITMAP
3180
3180
3180
3180
3180
3300
FF00
FF80
3180
3080
30C0
30C0
30C0
30C0
ENDCHAR
STARTCHAR 006C
ENCODING 108
SWIDTH 411 0
DWIDTH 8 0
BBX 7 14 1 0
BITMAP
C0
C0
C0
C0
C0
C0
C0
C0
C0
C0
C0
C0
FE
FE
ENDCHAR
STARTCHAR 006D
ENCODING 109
SWIDTH 822 0
DWIDTH 16 0
BBX 16 14 0 0
BITMAP
4003
E0C3
78E3
7CF3
6EDF
63CF
61C7
60C3
60C3
60C3
60C3
60C3
60C3
60C3
ENDCHAR
STARTCHAR 006E
ENCODING 110
SWIDTH 514 0
DWIDTH 10 0
BBX 9 14 0 0
BITMAP
4180
E180
7980
7D80
6F80
6380
6180
6180
6180
6180
6180
6180
6180
6180
ENDCHAR
STARTCHAR 006F
ENCODING 111
SWIDTH 771 0
DWIDTH 15 0
BBX 14 14 1 0
BITMAP
0F80
1FE0
7030
6018
C00C
C00C
C00C
800C
C00C
C00C
E018
7038
3CF0
1FC0
ENDCHAR
STARTCHAR 0070
ENCODING 112
SWIDTH 514 0
DWIDTH 10 0
BBX 11 14 0 0
BITMAP
3E00
3F80
20C0
2040
2060
2040
20C0
FF80
FF00
2000
2000
2000
2000
2000
ENDCHAR
STARTCHAR 0071
ENCODING 113
SWIDTH 771 0
DWIDTH 15 0
BBX 14 14 1 0
BITMAP
0F80
1FE0
7030
6018
C00C
C00C
C00C
800C
C00C
C00C
E078
7078
3CF8
1FD8
ENDCHAR
STARTCHAR 0072
ENCODING 114
SWIDTH 565 0
DWIDTH 11 0
BBX 11 14 0 0
BITMAP
3E00
3F80
30C0
3060
3060
3060
30C0
FF80
FF80
30C0
30C0
30C0
30C0
30C0
ENDCHAR
STARTCHAR 0073
ENCODING 115
SWIDTH 462 0
DWIDTH 9 0
BBX 8 14 1 0
BITMAP
3C
7E
C6
C3
C0
70
38
1E
06
03
83
C3
E6
7E
ENDCHAR
STARTCHAR 0074
ENCODING 116
SWIDTH 462 0
DWIDTH 9 0
BBX 9 14 0 0
BITMAP
FF80
FF80
0C00
0C00
0C00
0C00
0C00
0C00
0C00
0C00
0C00
0C00
0C00
0C00
ENDCHAR
STARTCHAR 0075
ENCODING 117
SWIDTH 462 0
DWIDTH 9 0
BBX 8 14 1 0
BITMAP
C3
C3
C3
C3
C3
C3
C3
C3
C3
C3
C3
C3
66
7C
ENDCHAR
STARTCHAR 0076
ENCODING 118
SWIDTH 462 0
DWIDTH 9 0
BBX 8 14 0 0
BITMAP
C3
C3
C3
C3
C3
C3
C3
C3
C3
43
63
66
3E
1C
ENDCHAR
STARTCHAR 0077
ENCODING 119
SWIDTH 771 0
DWIDTH 15 0
BBX 14 14 0 0
BITMAP
C30C
C30C
C30C
C30C
C30C
C30C
C30C
C30C
C30C
438C
638C
6798
3ED8
1C70
ENDCHAR
STARTCHAR 0078
ENCODING 120
SWIDTH 514 0
DWIDTH 10 0
BBX 8 14 1 0
BITMAP
C3
C3
C3
C3
C3
7E
7E
67
C3
C3
C3
C3
C3
C3
ENDCHAR
STARTCHAR 0079
ENCODING 121
SWIDTH 462 0
DWIDTH 9 0
BBX 8 14 1 0
BITMAP
C3
C3
C3
C3
C3
C3
C3
C3
C7
7E
38
18
18
18
ENDCHAR
STARTCHAR 007A
ENCODING 122
SWIDTH 462 0
DWIDTH 9 0
BBX 9 14 0 0
BITMAP
7F80
7F80
0180
0300
0600
0600
0C00
0C00
1800
3800
3000
6000
7F80
FF80
ENDCHAR
STARTCHAR 007B
ENCODING 123
SWIDTH 308 0
DWIDTH 6 0
BBX 5 19 1 -3
BITMAP
38
38
20
20
20
20
20
60
60
C0
60
60
20
20
20
20
20
38
18
ENDCHAR
STARTCHAR 007C
ENCODING 124
SWIDTH 154 0
DWIDTH 3 0
BBX 1 16 1 -2
BITMAP
80
80
80
80
80
80
80
80
80
80
80
80
80
80
80
80
ENDCHAR
STARTCHAR 007D
ENCODING 125
SWIDTH 308 0
DWIDTH 6 0
BBX 5 19 1 -3
BITMAP
C0
E0
20
20
20
20
20
20
30
18
30
20
20
20
20
20
20
E0
C0
ENDCHAR
STARTCHAR 007E
ENCODING 126
SWIDTH 514 0
DWIDTH 10 0
BBX 9 2 1 5
BITMAP
FF80
0F00
ENDCHAR
STARTCHAR 00A1
ENCODING 161
SWIDTH 205 0
DWIDTH 4 0
BBX 3 14 1 -2
BITMAP
40
E0
E0
00
00
40
40
40
40
40
40
40
40
40
ENDCHAR
STARTCHAR 00A2
ENCODING 162
SWIDTH 514 0
DWIDTH 10 0
BBX 8 12 1 1
BITMAP
08
08
3E
6B
C8
C8
C8
C8
48
7F
1C
08
ENDCHAR
STARTCHAR 00A3
ENCODING 163
SWIDTH 514 0
DWIDTH 10 0
BBX 8 14 1 0
BITMAP
0F
3F
30
60
60
60
30
FF
30
18
18
30
FF
FF
ENDCHAR
STARTCHAR 00A4
ENCODING 164
SWIDTH 565 0
DWIDTH 11 0
BBX 9 9 1 2
BITMAP
0080
FF80
6300
4100
4180
4100
6100
7F00
DD80
ENDCHAR
STARTCHAR 00A5
ENCODING 165
SWIDTH 617 0
DWIDTH 12 0
BBX 10 14 1 0
BITMAP
C0C0
60C0
6180
3180
3300
1B00
1E00
7F80
7F80
0C00
7F80
0C00
0C00
0C00
ENDCHAR
STARTCHAR 00A6
ENCODING 166
SWIDTH 154 0
DWIDTH 3 0
BBX 1 16 1 -2
BITMAP
80
80
80
80
80
80
00
00
00
00
80
80
80
80
80
80
ENDCHAR
STARTCHAR 00A7
ENCODING 167
SWIDTH 462 0
DWIDTH 9 0
BBX 7 16 1 -2
BITMAP
38
7C
46
64
70
38
7E
C6
C6
66
3C
1C
04
C6
6C
7C
ENDCHAR
STARTCHAR 00A8
ENCODING 168
SWIDTH 360 0
DWIDTH 7 0
BBX 7 2 0 15
BITMAP
E6
EE
ENDCHAR
STARTCHAR 00A9
ENCODING 169
SWIDTH 822 0
DWIDTH 16 0
BBX 14 14 1 0
BITMAP
07C0
1830
2018
4308
47C4
8804
8804
8804
8804
CCC4
478C
6008
3030
0FE0
ENDCHAR
STARTCHAR 00AB
ENCODING 171
SWIDTH 514 0
DWIDTH 10 0
BBX 8 8 1 2
BITMAP
1B
32
66
4C
CC
66
32
1B
ENDCHAR
STARTCHAR 00AC
ENCODING 172
SWIDTH 514 0
DWIDTH 10 0
BBX 9 5 1 2
BITMAP
FF80
0180
0180
0180
0180
ENDCHAR
STARTCHAR 00AE
ENCODING 174
SWIDTH 462 0
DWIDTH 9 0
BBX 8 8 1 6
BITMAP
3C
42
BA
B9
A9
82
46
38
ENDCHAR
STARTCHAR 00AF
ENCODING 175
SWIDTH 257 0
DWIDTH 5 0
BBX 5 2 0 15
BITMAP
F8
F8
ENDCHAR
STARTCHAR 00B0
ENCODING 176
SWIDTH 308 0
DWIDTH 6 0
BBX 4 5 1 9
BITMAP
60
90
90
D0
20
ENDCHAR
STARTCHAR 00B1
ENCODING 177
SWIDTH 514 0
DWIDTH 10 0
BBX 9 8 1 2
BITMAP
0800
0800
FF80
FF80
0800
0800
0000
FF80
ENDCHAR
STARTCHAR 00B4
ENCODING 180
SWIDTH 154 0
DWIDTH 3 0
BBX 3 2 0 15
BITMAP
60
C0
ENDCHAR
STARTCHAR 00B6
ENCODING 182
SWIDTH 462 0
DWIDTH 9 0
BBX 7 16 1 -2
BITMAP
1A
7A
FA
FA
FA
FA
7A
3A
0A
0A
0A
0A
0A
0A
0A
0A
ENDCHAR
STARTCHAR 00B7
ENCODING 183
SWIDTH 205 0
DWIDTH 4 0
BBX 3 2 1 4
BITMAP
E0
E0
ENDCHAR
STARTCHAR 00B8
ENCODING 184
SWIDTH 205 0
DWIDTH 4 0
BBX 4 4 0 -4
BITMAP
20
10
90
70
ENDCHAR
STARTCHAR 00BB
ENCODING 187
SWIDTH 514 0
DWIDTH 10 0
BBX 7 8 2 2
BITMAP
98
CC
64
36
32
66
CC
98
ENDCHAR
STARTCHAR 00BF
ENCODING 191
SWIDTH 411 0
DWIDTH 8 0
BBX 6 14 1 -2
BITMAP
18
38
38
00
00
10
10
30
60
40
C0
C4
EC
78
ENDCHAR
STARTCHAR 00C0
ENCODING 192
SWIDTH 514 0
DWIDTH 10 0
BBX 10 17 1 0
BITMAP
3000
1800
0000
3C00
7E00
C300
C300
C300
C300
C300
C300
C300
C300
C300
C300
FFC0
FFC0
ENDCHAR
STARTCHAR 00C1
ENCODING 193
SWIDTH 514 0
DWIDTH 10 0
BBX 10 17 1 0
BITMAP
0C00
0800
0000
3C00
7E00
C300
C300
C300
C300
C300
C300
C300
C300
C300
C300
FFC0
FFC0
ENDCHAR
STARTCHAR 00C2
ENCODING 194
SWIDTH 514 0
DWIDTH 10 0
BBX 10 17 1 0
BITMAP
3C00
2400
0200
3C00
7E00
C300
C300
C300
C300
C300
C300
C300
C300
C300
C300
FFC0
FFC0
ENDCHAR
STARTCHAR 00C3
ENCODING 195
SWIDTH 514 0
DWIDTH 10 0
BBX 10 17 1 0
BITMAP
7C00
0000
0000
3C00
7E00
C300
C300
C300
C300
C300
C300
C300
C300
C300
C300
FFC0
FFC0
ENDCHAR
STARTCHAR 00C4
ENCODING 196
SWIDTH 514 0
DWIDTH 10 0
BBX 10 17 1 0
BITMAP
6700
6700
0000
3C00
7E00
C300
C300
C300
C300
C300
C300
C300
C300
C300
C300
FFC0
FFC0
ENDCHAR
STARTCHAR 00C5
ENCODING 197
SWIDTH 514 0
DWIDTH 10 0
BBX 10 19 1 0
BITMAP
1800
2400
2400
1C00
0000
3C00
7E00
C300
C300
C300
C300
C300
C300
C300
C300
C300
C300
FFC0
FFC0
ENDCHAR
STARTCHAR 00C7
ENCODING 199
SWIDTH 668 0
DWIDTH 13 0
BBX 12 18 1 -4
BITMAP
0F80
3FE0
7070
6000
C000
C000
C000
8000
C000
C000
E000
7030
3CE0
1FC0
0200
0100
0900
0F00
ENDCHAR
STARTCHAR 00C8
ENCODING 200
SWIDTH 462 0
DWIDTH 9 0
BBX 10 17 0 0
BITMAP
1000
0800
0000
3E00
3E00
3000
3000
3000
3000
FF00
FF00
3000
3000
3000
3000
3FC0
3FC0
ENDCHAR
STARTCHAR 00C9
ENCODING 201
SWIDTH 462 0
DWIDTH 9 0
BBX 10 17 0 0
BITMAP
0400
0800
0000
3E00
3E00
3000
3000
3000
3000
FF00
FF00
3000
3000
3000
3000
3FC0
3FC0
ENDCHAR
STARTCHAR 00CA
ENCODING 202
SWIDTH 462 0
DWIDTH 9 0
BBX 10 17 0 0
BITMAP
1C00
3600
0000
3E00
3E00
3000
3000
3000
3000
FF00
FF00
3000
3000
3000
3000
3FC0
3FC0
ENDCHAR
STARTCHAR 00CB
ENCODING 203
SWIDTH 462 0
DWIDTH 9 0
BBX 10 17 0 0
BITMAP
7700
7700
0000
3E00
3E00
3000
3000
3000
3000
FF00
FF00
3000
3000
3000
3000
3FC0
3FC0
ENDCHAR
STARTCHAR 00CC
ENCODING 204
SWIDTH 154 0
DWIDTH 3 0
BBX 3 12 0 0
BITMAP
C0
40
20
00
60
60
60
60
60
60
60
60
ENDCHAR
STARTCHAR 00CD
ENCODING 205
SWIDTH 154 0
DWIDTH 3 0
BBX 3 12 1 0
BITMAP
60
40
80
00
C0
C0
C0
C0
C0
C0
C0
C0
ENDCHAR
STARTCHAR 00CE
ENCODING 206
SWIDTH 154 0
DWIDTH 3 0
BBX 6 12 -1 0
BITMAP
30
48
CC
00
30
30
30
30
30
30
30
30
ENDCHAR
STARTCHAR 00CF
ENCODING 207
SWIDTH 154 0
DWIDTH 3 0
BBX 8 12 -2 0
BITMAP
66
E7
66
00
18
18
18
18
18
18
18
18
ENDCHAR
STARTCHAR 00D1
ENCODING 209
SWIDTH 514 0
DWIDTH 10 0
BBX 9 17 0 0
BITMAP
3E00
0000
0000
4180
E180
7980
7D80
6F80
6380
6180
6180
6180
6180
6180
6180
6180
6180
ENDCHAR
STARTCHAR 00D2
ENCODING 210
SWIDTH 771 0
DWIDTH 15 0
BBX 14 17 1 0
BITMAP
0600
0200
0000
0F80
1FE0
7030
6018
C00C
C00C
C00C
800C
C00C
C00C
E018
7038
3CF0
1FC0
ENDCHAR
STARTCHAR 00D3
ENCODING 211
SWIDTH 771 0
DWIDTH 15 0
BBX 14 17 1 0
BITMAP
0180
0300
0000
0F80
1FE0
7030
6018
C00C
C00C
C00C
800C
C00C
C00C
E018
7038
3CF0
1FC0
ENDCHAR
STARTCHAR 00D4
ENCODING 212
SWIDTH 771 0
DWIDTH 15 0
BBX 14 17 1 0
BITMAP
0780
0480
0800
0F80
1FE0
7030
6018
C00C
C00C
C00C
800C
C00C
C00C
E018
7038
3CF0
1FC0
ENDCHAR
STARTCHAR 00D5
ENCODING 213
SWIDTH 771 0
DWIDTH 15 0
BBX 14 17 1 0
BITMAP
0F80
0000
0000
0F80
1FE0
7030
6018
C00C
C00C
C00C
800C
C00C
C00C
E018
7038
3CF0
1FC0
ENDCHAR
STARTCHAR 00D6
ENCODING 214
SWIDTH 771 0
DWIDTH 15 0
BBX 14 17 1 0
BITMAP
0CE0
0CE0
0000
0F80
1FE0
7030
6018
C00C
C00C
C00C
800C
C00C
C00C
E018
7038
3CF0
1FC0
ENDCHAR
STARTCHAR 00D7
ENCODING 215
SWIDTH 514 0
DWIDTH 10 0
BBX 8 7 1 3
BITMAP
C3
66
3C
18
3C
66
C3
ENDCHAR
STARTCHAR 00D8
ENCODING 216
SWIDTH 771 0
DWIDTH 15 0
BBX 15 14 0 -1
BITMAP
07C4
1FF8
3838
703C
606E
60C6
C186
C306
4206
6606
6C0C
381C
3E78
6FE0
ENDCHAR
STARTCHAR 00D9
ENCODING 217
SWIDTH 462 0
DWIDTH 9 0
BBX 8 17 1 0
BITMAP
30
10
00
C3
C3
C3
C3
C3
C3
C3
C3
C3
C3
C3
C3
66
7C
ENDCHAR
STARTCHAR 00DA
ENCODING 218
SWIDTH 462 0
DWIDTH 9 0
BBX 8 17 1 0
BITMAP
0C
18
00
C3
C3
C3
C3
C3
C3
C3
C3
C3
C3
C3
C3
66
7C
ENDCHAR
STARTCHAR 00DB
ENCODING 219
SWIDTH 462 0
DWIDTH 9 0
BBX 8 17 1 0
BITMAP
3C
24
40
C3
C3
C3
C3
C3
C3
C3
C3
C3
C3
C3
C3
66
7C
ENDCHAR
STARTCHAR 00DC
ENCODING 220
SWIDTH 462 0
DWIDTH 9 0
BBX 8 17 1 0
BITMAP
67
67
00
C3
C3
C3
C3
C3
C3
C3
C3
C3
C3
C3
C3
66
7C
ENDCHAR
STARTCHAR 00DD
ENCODING 221
SWIDTH 462 0
DWIDTH 9 0
BBX 8 17 1 0
BITMAP
08
18
00
C3
C3
C3
C3
C3
C3
C3
C3
C7
7E
38
18
18
18
ENDCHAR
STARTCHAR 00E0
ENCODING 224
SWIDTH 514 0
DWIDTH 10 0
BBX 10 17 1 0
BITMAP
3000
1800
0000
3C00
7E00
C300
C300
C300
C300
C300
C300
C300
C300
C300
C300
FFC0
FFC0
ENDCHAR
STARTCHAR 00E1
ENCODING 225
SWIDTH 514 0
DWIDTH 10 0
BBX 10 17 1 0
BITMAP
0C00
0800
0000
3C00
7E00
C300
C300
C300
C300
C300
C300
C300
C300
C300
C300
FFC0
FFC0
ENDCHAR
STARTCHAR 00E2
ENCODING 226
SWIDTH 514 0
DWIDTH 10 0
BBX 10 17 1 0
BITMAP
3C00
2400
0200
3C00
7E00
C300
C300
C300
C300
C300
C300
C300
C300
C300
C300
FFC0
FFC0
ENDCHAR
STARTCHAR 00E3
ENCODING 227
SWIDTH 514 0
DWIDTH 10 0
BBX 10 17 1 0
BITMAP
7C00
0000
0000
3C00
7E00
C300
C300
C300
C300
C300
C300
C300
C300
C300
C300
FFC0
FFC0
ENDCHAR
STARTCHAR 00E4
ENCODING 228
SWIDTH 514 0
DWIDTH 10 0
BBX 10 17 1 0
BITMAP
6700
6700
0000
3C00
7E00
C300
C300
C300
C300
C300
C300
C300
C300
C300
C300
FFC0
FFC0
ENDCHAR
STARTCHAR 00E5
ENCODING 229
SWIDTH 514 0
DWIDTH 10 0
BBX 10 19 1 0
BITMAP
1800
2400
2400
1C00
0000
3C00
7E00
C300
C300
C300
C300
C300
C300
C300
C300
C300
C300
FFC0
FFC0
ENDCHAR
STARTCHAR 00E7
ENCODING 231
SWIDTH 668 0
DWIDTH 13 0
BBX 12 18 1 -4
BITMAP
0F80
3FE0
7070
6000
C000
C000
C000
8000
C000
C000
E000
7030
3CE0
1FC0
0200
0100
0900
0F00
ENDCHAR
STARTCHAR 00E8
ENCODING 232
SWIDTH 462 0
DWIDTH 9 0
BBX 10 17 0 0
BITMAP
1000
0800
0000
3E00
3E00
3000
3000
3000
3000
FF00
FF00
3000
3000
3000
3000
3FC0
3FC0
ENDCHAR
STARTCHAR 00E9
ENCODING 233
SWIDTH 462 0
DWIDTH 9 0
BBX 10 17 0 0
BITMAP
0400
0800
0000
3E00
3E00
3000
3000
3000
3000
FF00
FF00
3000
3000
3000
3000
3FC0
3FC0
ENDCHAR
STARTCHAR 00EA
ENCODING 234
SWIDTH 462 0
DWIDTH 9 0
BBX 10 17 0 0
BITMAP
1C00
3600
0000
3E00
3E00
3000
3000
3000
3000
FF00
FF00
3000
3000
3000
3000
3FC0
3FC0
ENDCHAR
STARTCHAR 00EB
ENCODING 235
SWIDTH 462 0
DWIDTH 9 0
BBX 10 17 0 0
BITMAP
7700
7700
0000
3E00
3E00
3000
3000
3000
3000
FF00
FF00
3000
3000
3000
3000
3FC0
3FC0
ENDCHAR
STARTCHAR 00EC
ENCODING 236
SWIDTH 154 0
DWIDTH 3 0
BBX 3 12 0 0
BITMAP
C0
40
20
00
60
60
60
60
60
60
60
60
ENDCHAR
STARTCHAR 00ED
ENCODING 237
SWIDTH 154 0
DWIDTH 3 0
BBX 3 12 1 0
BITMAP
60
40
80
00
C0
C0
C0
C0
C0
C0
C0
C0
ENDCHAR
STARTCHAR 00EE
ENCODING 238
SWIDTH 154 0
DWIDTH 3 0
BBX 6 12 -1 0
BITMAP
30
48
CC
00
30
30
30
30
30
30
30
30
ENDCHAR
STARTCHAR 00EF
ENCODING 239
SWIDTH 154 0
DWIDTH 3 0
BBX 8 12 -2 0
BITMAP
66
E7
66
00
18
18
18
18
18
18
18
18
ENDCHAR
STARTCHAR 00F1
ENCODING 241
SWIDTH 514 0
DWIDTH 10 0
BBX 9 17 0 0
BITMAP
3E00
0000
0000
4180
E180
7980
7D80
6F80
6380
6180
6180
6180
6180
6180
6180
6180
6180
ENDCHAR
STARTCHAR 00F2
ENCODING 242
SWIDTH 771 0
DWIDTH 15 0
BBX 14 17 1 0
BITMAP
0600
0200
0000
0F80
1FE0
7030
6018
C00C
C00C
C00C
800C
C00C
C00C
E018
7038
3CF0
1FC0
ENDCHAR
STARTCHAR 00F3
ENCODING 243
SWIDTH 771 0
DWIDTH 15 0
BBX 14 17 1 0
BITMAP
0180
0300
0000
0F80
1FE0
7030
6018
C00C
C00C
C00C
800C
C00C
C00C
E018
7038
3CF0
1FC0
ENDCHAR
STARTCHAR 00F4
ENCODING 244
SWIDTH 771 0
DWIDTH 15 0
BBX 14 17 1 0
BITMAP
0780
0480
0800
0F80
1FE0
7030
6018
C00C
C00C
C00C
800C
C00C
C00C
E018
7038
3CF0
1FC0
ENDCHAR
STARTCHAR 00F5
ENCODING 245
SWIDTH 771 0
DWIDTH 15 0
BBX 14 17 1 0
BITMAP
0F80
0000
0000
0F80
1FE0
7030
6018
C00C
C00C
C00C
800C
C00C
C00C
E018
7038
3CF0
1FC0
ENDCHAR
STARTCHAR 00F6
ENCODING 246
SWIDTH 771 0
DWIDTH 15 0
BBX 14 17 1 0
BITMAP
0CE0
0CE0
0000
0F80
1FE0
7030
6018
C00C
C00C
C00C
800C
C00C
C00C
E018
7038
3CF0
1FC0
ENDCHAR
STARTCHAR 00F7
ENCODING 247
SWIDTH 514 0
DWIDTH 10 0
BBX 9 9 1 2
BITMAP
0800
1C00
1800
0000
FF80
FF80
0000
1C00
1800
ENDCHAR
STARTCHAR 00F8
ENCODING 248
SWIDTH 771 0
DWIDTH 15 0
BBX 15 14 0 -1
BITMAP
07C4
1FF8
3838
703C
606E
60C6
C186
C306
4206
6606
6C0C
381C
3E78
6FE0
ENDCHAR
STARTCHAR 00F9
ENCODING 249
SWIDTH 462 0
DWIDTH 9 0
BBX 8 17 1 0
BITMAP
30
10
00
C3
C3
C3
C3
C3
C3
C3
C3
C3
C3
C3
C3
66
7C
ENDCHAR
STARTCHAR 00FA
ENCODING 250
SWIDTH 462 0
DWIDTH 9 0
BBX 8 17 1 0
BITMAP
0C
18
00
C3
C3
C3
C3
C3
C3
C3
C3
C3
C3
C3
C3
66
7C
ENDCHAR
STARTCHAR 00FB
ENCODING 251
SWIDTH 462 0
DWIDTH 9 0
BBX 8 17 1 0
BITMAP
3C
24
40
C3
C3
C3
C3
C3
C3
C3
C3
C3
C3
C3
C3
66
7C
ENDCHAR
STARTCHAR 00FC
ENCODING 252
SWIDTH 462 0
DWIDTH 9 0
BBX 8 17 1 0
BITMAP
67
67
00
C3
C3
C3
C3
C3
C3
C3
C3
C3
C3
C3
C3
66
7C
ENDCHAR
STARTCHAR 00FD
ENCODING 253
SWIDTH 462 0
DWIDTH 9 0
BBX 8 17 1 0
BITMAP
08
18
00
C3
C3
C3
C3
C3
C3
C3
C3
C7
7E
38
18
18
18
ENDCHAR
STARTCHAR 00FF
ENCODING 255
SWIDTH 462 0
DWIDTH 9 0
BBX 8 17 1 0
BITMAP
E6
E6
00
C3
C3
C3
C3
C3
C3
C3
C3
C7
7E
38
18
18
18
ENDCHAR
STARTCHAR 0100
ENCODING 256
SWIDTH 514 0
DWIDTH 10 0
BBX 10 17 1 0
BITMAP
7E00
7E00
0000
3C00
7E00
C300
C300
C300
C300
C300
C300
C300
C300
C300
C300
FFC0
FFC0
ENDCHAR
STARTCHAR 0101
ENCODING 257
SWIDTH 514 0
DWIDTH 10 0
BBX 10 17 1 0
BITMAP
7E00
7E00
0000
3C00
7E00
C300
C300
C300
C300
C300
C300
C300
C300
C300
C300
FFC0
FFC0
ENDCHAR
STARTCHAR 0102
ENCODING 258
SWIDTH 514 0
DWIDTH 10 0
BBX 10 17 1 0
BITMAP
2600
3C00
0000
3C00
7E00
C300
C300
C300
C300
C300
C300
C300
C300
C300
C300
FFC0
FFC0
ENDCHAR
STARTCHAR 0103
ENCODING 259
SWIDTH 514 0
DWIDTH 10 0
BBX 10 17 1 0
BITMAP
2600
3C00
0000
3C00
7E00
C300
C300
C300
C300
C300
C300
C300
C300
C300
C300
FFC0
FFC0
ENDCHAR
STARTCHAR 0104
ENCODING 260
SWIDTH 514 0
DWIDTH 10 0
BBX 10 18 1 -4
BITMAP
3C00
7E00
C300
C300
C300
C300
C300
C300
C300
C300
C300
C300
FFC0
FFC0
0100
0100
0140
0080
ENDCHAR
STARTCHAR 0105
ENCODING 261
SWIDTH 514 0
DWIDTH 10 0
BBX 10 18 1 -4
BITMAP
3C00
7E00
C300
C300
C300
C300
C300
C300
C300
C300
C300
C300
FFC0
FFC0
0100
0100
0140
0080
ENDCHAR
STARTCHAR 0106
ENCODING 262
SWIDTH 668 0
DWIDTH 13 0
BBX 12 17 1 0
BITMAP
0100
0300
0000
0F80
3FE0
7070
6000
C000
C000
C000
8000
C000
C000
E000
7030
3CE0
1FC0
ENDCHAR
STARTCHAR 0107
ENCODING 263
SWIDTH 668 0
DWIDTH 13 0
BBX 12 17 1 0
BITMAP
0100
0300
0000
0F80
3FE0
7070
6000
C000
C000
C000
8000
C000
C000
E000
7030
3CE0
1FC0
ENDCHAR
STARTCHAR 010A
ENCODING 266
SWIDTH 668 0
DWIDTH 13 0
BBX 12 18 1 0
BITMAP
0300
0700
0300
0000
0F80
3FE0
7070
6000
C000
C000
C000
8000
C000
C000
E000
7030
3CE0
1FC0
ENDCHAR
STARTCHAR 010B
ENCODING 267
SWIDTH 668 0
DWIDTH 13 0
BBX 12 18 1 0
BITMAP
0300
0700
0300
0000
0F80
3FE0
7070
6000
C000
C000
C000
8000
C000
C000
E000
7030
3CE0
1FC0
ENDCHAR
STARTCHAR 010C
ENCODING 268
SWIDTH 668 0
DWIDTH 13 0
BBX 12 18 1 0
BITMAP
08C0
0580
0700
0000
0F80
3FE0
7070
6000
C000
C000
C000
8000
C000
C000
E000
7030
3CE0
1FC0
ENDCHAR
STARTCHAR 010D
ENCODING 269
SWIDTH 668 0
DWIDTH 13 0
BBX 12 18 1 0
BITMAP
08C0
0580
0700
0000
0F80
3FE0
7070
6000
C000
C000
C000
8000
C000
C000
E000
7030
3CE0
1FC0
ENDCHAR
STARTCHAR 010E
ENCODING 270
SWIDTH 617 0
DWIDTH 12 0
BBX 11 18 1 0
BITMAP
6200
3400
1C00
0000
F800
FF00
C380
C0C0
C060
C060
C060
C060
C060
C060
C0C0
C1C0
FF80
FE00
ENDCHAR
STARTCHAR 010F
ENCODING 271
SWIDTH 617 0
DWIDTH 12 0
BBX 11 18 1 0
BITMAP
6200
3400
1C00
0000
F800
FF00
C380
C0C0
C060
C060
C060
C060
C060
C060
C0C0
C1C0
FF80
FE00
ENDCHAR
STARTCHAR 0110
ENCODING 272
SWIDTH 668 0
DWIDTH 13 0
BBX 13 14 0 0
BITMAP
3E00
3FC0
30E0
3070
3030
3018
FE18
FE18
3018
3030
3030
3060
3FC0
3F00
ENDCHAR
STARTCHAR 0111
ENCODING 273
SWIDTH 668 0
DWIDTH 13 0
BBX 13 14 0 0
BITMAP
3E00
3FC0
30E0
3070
3030
3018
FE18
FE18
3018
3030
3030
3060
3FC0
3F00
ENDCHAR
STARTCHAR 0112
ENCODING 274
SWIDTH 462 0
DWIDTH 9 0
BBX 10 17 0 0
BITMAP
3E00
3E00
0000
3E00
3E00
3000
3000
3000
3000
FF00
FF00
3000
3000
3000
3000
3FC0
3FC0
ENDCHAR
STARTCHAR 0113
ENCODING 275
SWIDTH 462 0
DWIDTH 9 0
BBX 10 17 0 0
BITMAP
3E00
3E00
0000
3E00
3E00
3000
3000
3000
3000
FF00
FF00
3000
3000
3000
3000
3FC0
3FC0
ENDCHAR
STARTCHAR 0116
ENCODING 278
SWIDTH 462 0
DWIDTH 9 0
BBX 10 18 0 0
BITMAP
0C00
1C00
0C00
0000
3E00
3E00
3000
3000
3000
3000
FF00
FF00
3000
3000
3000
3000
3FC0
3FC0
ENDCHAR
STARTCHAR 0117
ENCODING 279
SWIDTH 462 0
DWIDTH 9 0
BBX 10 18 0 0
BITMAP
0C00
1C00
0C00
0000
3E00
3E00
3000
3000
3000
3000
FF00
FF00
3000
3000
3000
3000
3FC0
3FC0
ENDCHAR
STARTCHAR 0118
ENCODING 280
SWIDTH 462 0
DWIDTH 9 0
BBX 10 18 0 -4
BITMAP
3E00
3E00
3000
3000
3000
3000
FF00
FF00
3000
3000
3000
3000
3FC0
3FC0
0100
0100
0140
0080
ENDCHAR
STARTCHAR 0119
ENCODING 281
SWIDTH 462 0
DWIDTH 9 0
BBX 10 18 0 -4
BITMAP
3E00
3E00
3000
3000
3000
3000
FF00
FF00
3000
3000
3000
3000
3FC0
3FC0
0100
0100
0140
0080
ENDCHAR
STARTCHAR 011A
ENCODING 282
SWIDTH 462 0
DWIDTH 9 0
BBX 10 18 0 0
BITMAP
2200
3600
1C00
0000
3E00
3E00
3000
3000
3000
3000
FF00
FF00
3000
3000
3000
3000
3FC0
3FC0
ENDCHAR
STARTCHAR 011B
ENCODING 283
SWIDTH 462 0
DWIDTH 9 0
BBX 10 18 0 0
BITMAP
2200
3600
1C00
0000
3E00
3E00
3000
3000
3000
3000
FF00
FF00
3000
3000
3000
3000
3FC0
3FC0
ENDCHAR
STARTCHAR 011E
ENCODING 286
SWIDTH 822 0
DWIDTH 16 0
BBX 15 17 1 0
BITMAP
0C80
0780
0000
0F80
1FE0
7070
6000
C000
C000
C3FE
83FE
C00C
C00C
E018
7038
3CF0
1FC0
ENDCHAR
STARTCHAR 011F
ENCODING 287
SWIDTH 822 0
DWIDTH 16 0
BBX 15 17 1 0
BITMAP
0C80
0780
0000
0F80
1FE0
7070
6000
C000
C000
C3FE
83FE
C00C
C00C
E018
7038
3CF0
1FC0
ENDCHAR
STARTCHAR 0120
ENCODING 288
SWIDTH 822 0
DWIDTH 16 0
BBX 15 18 1 0
BITMAP
0300
0700
0300
0000
0F80
1FE0
7070
6000
C000
C000
C3FE
83FE
C00C
C00C
E018
7038
3CF0
1FC0
ENDCHAR
STARTCHAR 0121
ENCODING 289
SWIDTH 822 0
DWIDTH 16 0
BBX 15 18 1 0
BITMAP
0300
0700
0300
0000
0F80
1FE0
7070
6000
C000
C000
C3FE
83FE
C00C
C00C
E018
7038
3CF0
1FC0
ENDCHAR
STARTCHAR 0124
ENCODING 292
SWIDTH 514 0
DWIDTH 10 0
BBX 10 17 0 0
BITMAP
0E00
1900
0000
30C0
30C0
30C0
30C0
30C0
30C0
FFC0
FFC0
30C0
30C0
30C0
30C0
30C0
30C0
ENDCHAR
STARTCHAR 0125
ENCODING 293
SWIDTH 514 0
DWIDTH 10 0
BBX 10 17 0 0
BITMAP
0E00
1900
0000
30C0
30C0
30C0
30C0
30C0
30C0
FFC0
FFC0
30C0
30C0
30C0
30C0
30C0
30C0
ENDCHAR
STARTCHAR 0128
ENCODING 296
SWIDTH 154 0
DWIDTH 3 0
BBX 5 12 -1 0
BITMAP
E8
18
00
00
30
30
30
30
30
30
30
30
ENDCHAR
STARTCHAR 0129
ENCODING 297
SWIDTH 154 0
DWIDTH 3 0
BBX 5 12 -1 0
BITMAP
E8
18
00
00
30
30
30
30
30
30
30
30
ENDCHAR
STARTCHAR 012A
ENCODING 298
SWIDTH 154 0
DWIDTH 3 0
BBX 6 12 -1 0
BITMAP
FC
FC
00
00
30
30
30
30
30
30
30
30
ENDCHAR
STARTCHAR 012B
ENCODING 299
SWIDTH 154 0
DWIDTH 3 0
BBX 6 12 -1 0
BITMAP
FC
FC
00
00
30
30
30
30
30
30
30
30
ENDCHAR
STARTCHAR 012E
ENCODING 302
SWIDTH 154 0
DWIDTH 3 0
BBX 5 19 -1 -4
BITMAP
20
F8
30
30
00
00
00
30
30
30
30
30
30
30
30
60
40
50
20
ENDCHAR
STARTCHAR 012F
ENCODING 303
SWIDTH 154 0
DWIDTH 3 0
BBX 5 19 -1 -4
BITMAP
20
F8
30
30
00
00
00
30
30
30
30
30
30
30
30
60
40
50
20
ENDCHAR
STARTCHAR 0130
ENCODING 304
SWIDTH 154 0
DWIDTH 3 0
BBX 2 13 1 0
BITMAP
40
C0
C0
00
00
C0
C0
C0
C0
C0
C0
C0
C0
ENDCHAR
STARTCHAR 0139
ENCODING 313
SWIDTH 411 0
DWIDTH 8 0
BBX 7 17 1 0
BITMAP
60
C0
00
C0
C0
C0
C0
C0
C0
C0
C0
C0
C0
C0
C0
FE
FE
ENDCHAR
STARTCHAR 013A
ENCODING 314
SWIDTH 411 0
DWIDTH 8 0
BBX 7 17 1 0
BITMAP
60
C0
00
C0
C0
C0
C0
C0
C0
C0
C0
C0
C0
C0
C0
FE
FE
ENDCHAR
STARTCHAR 013D
ENCODING 317
SWIDTH 411 0
DWIDTH 8 0
BBX 9 18 -1 0
BITMAP
CC00
4800
3000
0000
3000
3000
3000
3000
3000
3000
3000
3000
3000
3000
3000
3000
3F80
3F80
ENDCHAR
STARTCHAR 013E
ENCODING 318
SWIDTH 411 0
DWIDTH 8 0
BBX 9 18 -1 0
BITMAP
CC00
4800
3000
0000
3000
3000
3000
3000
3000
3000
3000
3000
3000
3000
3000
3000
3F80
3F80
ENDCHAR
STARTCHAR 0141
ENCODING 321
SWIDTH 462 0
DWIDTH 9 0
BBX 9 14 0 0
BITMAP
3000
3000
3000
3000
3000
3400
3C00
7000
F000
3000
3000
3000
3F80
3F80
ENDCHAR
STARTCHAR 0142
ENCODING 322
SWIDTH 462 0
DWIDTH 9 0
BBX 9 14 0 0
BITMAP
3000
3000
3000
3000
3000
3400
3C00
7000
F000
3000
3000
3000
3F80
3F80
ENDCHAR
STARTCHAR 0143
ENCODING 323
SWIDTH 514 0
DWIDTH 10 0
BBX 9 17 0 0
BITMAP
0600
0400
0000
4180
E180
7980
7D80
6F80
6380
6180
6180
6180
6180
6180
6180
6180
6180
ENDCHAR
STARTCHAR 0144
ENCODING 324
SWIDTH 514 0
DWIDTH 10 0
BBX 9 17 0 0
BITMAP
0600
0400
0000
4180
E180
7980
7D80
6F80
6380
6180
6180
6180
6180
6180
6180
6180
6180
ENDCHAR
STARTCHAR 0147
ENCODING 327
SWIDTH 514 0
DWIDTH 10 0
BBX 9 18 0 0
BITMAP
3300
1A00
0C00
0000
4180
E180
7980
7D80
6F80
6380
6180
6180
6180
6180
6180
6180
6180
6180
ENDCHAR
STARTCHAR 0148
ENCODING 328
SWIDTH 514 0
DWIDTH 10 0
BBX 9 18 0 0
BITMAP
3300
1A00
0C00
0000
4180
E180
7980
7D80
6F80
6380
6180
6180
6180
6180
6180
6180
6180
6180
ENDCHAR
STARTCHAR 014C
ENCODING 332
SWIDTH 771 0
DWIDTH 15 0
BBX 14 17 1 0
BITMAP
0FC0
0FC0
0000
0F80
1FE0
7030
6018
C00C
C00C
C00C
800C
C00C
C00C
E018
7038
3CF0
1FC0
ENDCHAR
STARTCHAR 014D
ENCODING 333
SWIDTH 771 0
DWIDTH 15 0
BBX 14 17 1 0
BITMAP
0FC0
0FC0
0000
0F80
1FE0
7030
6018
C00C
C00C
C00C
800C
C00C
C00C
E018
7038
3CF0
1FC0
ENDCHAR
STARTCHAR 0150
ENCODING 336
SWIDTH 771 0
DWIDTH 15 0
BBX 14 17 1 0
BITMAP
0640
0480
0000
0F80
1FE0
7030
6018
C00C
C00C
C00C
800C
C00C
C00C
E018
7038
3CF0
1FC0
ENDCHAR
STARTCHAR 0151
ENCODING 337
SWIDTH 771 0
DWIDTH 15 0
BBX 14 17 1 0
BITMAP
0640
0480
0000
0F80
1FE0
7030
6018
C00C
C00C
C00C
800C
C00C
C00C
E018
7038
3CF0
1FC0
ENDCHAR
STARTCHAR 0154
ENCODING 340
SWIDTH 565 0
DWIDTH 11 0
BBX 11 17 0 0
BITMAP
0200
0400
0000
3E00
3F80
30C0
3060
3060
3060
30C0
FF80
FF80
30C0
30C0
30C0
30C0
30C0
ENDCHAR
STARTCHAR 0155
ENCODING 341
SWIDTH 565 0
DWIDTH 11 0
BBX 11 17 0 0
BITMAP
0200
0400
0000
3E00
3F80
30C0
3060
3060
3060
30C0
FF80
FF80
30C0
30C0
30C0
30C0
30C0
ENDCHAR
STARTCHAR 0158
ENCODING 344
SWIDTH 565 0
DWIDTH 11 0
BBX 11 18 0 0
BITMAP
1100
1B00
0E00
0000
3E00
3F80
30C0
3060
3060
3060
30C0
FF80
FF80
30C0
30C0
30C0
30C0
30C0
ENDCHAR
STARTCHAR 0159
ENCODING 345
SWIDTH 565 0
DWIDTH 11 0
BBX 11 18 0 0
BITMAP
1100
1B00
0E00
0000
3E00
3F80
30C0
3060
3060
3060
30C0
FF80
FF80
30C0
30C0
30C0
30C0
30C0
ENDCHAR
STARTCHAR 015A
ENCODING 346
SWIDTH 462 0
DWIDTH 9 0
BBX 8 17 1 0
BITMAP
08
18
00
3C
7E
C6
C3
C0
70
38
1E
06
03
83
C3
E6
7E
ENDCHAR
STARTCHAR 015B
ENCODING 347
SWIDTH 462 0
DWIDTH 9 0
BBX 8 17 1 0
BITMAP
08
18
00
3C
7E
C6
C3
C0
70
38
1E
06
03
83
C3
E6
7E
ENDCHAR
STARTCHAR 015E
ENCODING 350
SWIDTH 462 0
DWIDTH 9 0
BBX 8 18 1 -4
BITMAP
3C
7E
C6
C3
C0
70
38
1E
06
03
83
C3
E6
7E
10
08
04
38
ENDCHAR
STARTCHAR 015F
ENCODING 351
SWIDTH 462 0
DWIDTH 9 0
BBX 8 18 1 -4
BITMAP
3C
7E
C6
C3
C0
70
38
1E
06
03
83
C3
E6
7E
10
08
04
38
ENDCHAR
STARTCHAR 0160
ENCODING 352
SWIDTH 462 0
DWIDTH 9 0
BBX 8 18 1 0
BITMAP
46
2C
38
00
3C
7E
C6
C3
C0
70
38
1E
06
03
83
C3
E6
7E
ENDCHAR
STARTCHAR 0161
ENCODING 353
SWIDTH 462 0
DWIDTH 9 0
BBX 8 18 1 0
BITMAP
46
2C
38
00
3C
7E
C6
C3
C0
70
38
1E
06
03
83
C3
E6
7E
ENDCHAR
STARTCHAR 0162
ENCODING 354
SWIDTH 462 0
DWIDTH 9 0
BBX 9 18 0 -4
BITMAP
FF80
FF80
0C00
0C00
0C00
0C00
0C00
0C00
0C00
0C00
0C00
0C00
0C00
0C00
0800
0400
0400
1C00
ENDCHAR
STARTCHAR 0163
ENCODING 355
SWIDTH 462 0
DWIDTH 9 0
BBX 9 18 0 -4
BITMAP
FF80
FF80
0C00
0C00
0C00
0C00
0C00
0C00
0C00
0C00
0C00
0C00
0C00
0C00
0800
0400
0400
1C00
ENDCHAR
STARTCHAR 0164
ENCODING 356
SWIDTH 462 0
DWIDTH 9 0
BBX 9 18 0 0
BITMAP
3300
1600
0C00
0000
FF80
FF80
0C00
0C00
0C00
0C00
0C00
0C00
0C00
0C00
0C00
0C00
0C00
0C00
ENDCHAR
STARTCHAR 0165
ENCODING 357
SWIDTH 462 0
DWIDTH 9 0
BBX 9 18 0 0
BITMAP
3300
1600
0C00
0000
FF80
FF80
0C00
0C00
0C00
0C00
0C00
0C00
0C00
0C00
0C00
0C00
0C00
0C00
ENDCHAR
STARTCHAR 0168
ENCODING 360
SWIDTH 462 0
DWIDTH 9 0
BBX 8 17 1 0
BITMAP
7C
00
00
C3
C3
C3
C3
C3
C3
C3
C3
C3
C3
C3
C3
66
7C
ENDCHAR
STARTCHAR 0169
ENCODING 361
SWIDTH 462 0
DWIDTH 9 0
BBX 8 17 1 0
BITMAP
7C
00
00
C3
C3
C3
C3
C3
C3
C3
C3
C3
C3
C3
C3
66
7C
ENDCHAR
STARTCHAR 016A
ENCODING 362
SWIDTH 462 0
DWIDTH 9 0
BBX 8 17 1 0
BITMAP
7E
7E
00
C3
C3
C3
C3
C3
C3
C3
C3
C3
C3
C3
C3
66
7C
ENDCHAR
STARTCHAR 016B
ENCODING 363
SWIDTH 462 0
DWIDTH 9 0
BBX 8 17 1 0
BITMAP
7E
7E
00
C3
C3
C3
C3
C3
C3
C3
C3
C3
C3
C3
C3
66
7C
ENDCHAR
STARTCHAR 016E
ENCODING 366
SWIDTH 462 0
DWIDTH 9 0
BBX 8 19 1 0
BITMAP
18
24
24
3C
00
C3
C3
C3
C3
C3
C3
C3
C3
C3
C3
C3
C3
66
7C
ENDCHAR
STARTCHAR 016F
ENCODING 367
SWIDTH 462 0
DWIDTH 9 0
BBX 8 19 1 0
BITMAP
18
24
24
3C
00
C3
C3
C3
C3
C3
C3
C3
C3
C3
C3
C3
C3
66
7C
ENDCHAR
STARTCHAR 0170
ENCODING 368
SWIDTH 462 0
DWIDTH 9 0
BBX 8 17 1 0
BITMAP
32
24
00
C3
C3
C3
C3
C3
C3
C3
C3
C3
C3
C3
C3
66
7C
ENDCHAR
STARTCHAR 0171
ENCODING 369
SWIDTH 462 0
DWIDTH 9 0
BBX 8 17 1 0
BITMAP
32
24
00
C3
C3
C3
C3
C3
C3
C3
C3
C3
C3
C3
C3
66
7C
ENDCHAR
STARTCHAR 0172
ENCODING 370
SWIDTH 462 0
DWIDTH 9 0
BBX 8 18 1 -4
BITMAP
C3
C3
C3
C3
C3
C3
C3
C3
C3
C3
C3
C3
66
7C
10
20
34
18
ENDCHAR
STARTCHAR 0173
ENCODING 371
SWIDTH 462 0
DWIDTH 9 0
BBX 8 18 1 -4
BITMAP
C3
C3
C3
C3
C3
C3
C3
C3
C3
C3
C3
C3
66
7C
10
20
34
18
ENDCHAR
STARTCHAR 0176
ENCODING 374
SWIDTH 462 0
DWIDTH 9 0
BBX 8 17 1 0
BITMAP
38
64
00
C3
C3
C3
C3
C3
C3
C3
C3
C7
7E
38
18
18
18
ENDCHAR
STARTCHAR 0177
ENCODING 375
SWIDTH 462 0
DWIDTH 9 0
BBX 8 17 1 0
BITMAP
38
64
00
C3
C3
C3
C3
C3
C3
C3
C3
C7
7E
38
18
18
18
ENDCHAR
STARTCHAR 0178
ENCODING 376
SWIDTH 462 0
DWIDTH 9 0
BBX 8 17 1 0
BITMAP
E6
E6
00
C3
C3
C3
C3
C3
C3
C3
C3
C7
7E
38
18
18
18
ENDCHAR
STARTCHAR 0179
ENCODING 377
SWIDTH 462 0
DWIDTH 9 0
BBX 9 17 0 0
BITMAP
0600
0C00
0000
7F80
7F80
0180
0300
0600
0600
0C00
0C00
1800
3800
3000
6000
7F80
FF80
ENDCHAR
STARTCHAR 017A
ENCODING 378
SWIDTH 462 0
DWIDTH 9 0
BBX 9 17 0 0
BITMAP
0600
0C00
0000
7F80
7F80
0180
0300
0600
0600
0C00
0C00
1800
3800
3000
6000
7F80
FF80
ENDCHAR
STARTCHAR 017B
ENCODING 379
SWIDTH 462 0
DWIDTH 9 0
BBX 9 18 0 0
BITMAP
0C00
0E00
0C00
0000
7F80
7F80
0180
0300
0600
0600
0C00
0C00
1800
3800
3000
6000
7F80
FF80
ENDCHAR
STARTCHAR 017C
ENCODING 380
SWIDTH 462 0
DWIDTH 9 0
BBX 9 18 0 0
BITMAP
0C00
0E00
0C00
0000
7F80
7F80
0180
0300
0600
0600
0C00
0C00
1800
3800
3000
6000
7F80
FF80
ENDCHAR
STARTCHAR 017D
ENCODING 381
SWIDTH 462 0
DWIDTH 9 0
BBX 9 18 0 0
BITMAP
3300
1200
0C00
0000
7F80
7F80
0180
0300
0600
0600
0C00
0C00
1800
3800
3000
6000
7F80
FF80
ENDCHAR
STARTCHAR 017E
ENCODING 382
SWIDTH 462 0
DWIDTH 9 0
BBX 9 18 0 0
BITMAP
3300
1200
0C00
0000
7F80
7F80
0180
0300
0600
0600
0C00
0C00
1800
3800
3000
6000
7F80
FF80
ENDCHAR
STARTCHAR 01A0
ENCODING 416
SWIDTH 771 0
DWIDTH 15 0
BBX 14 15 1 0
BITMAP
0018
0FB0
1FE0
7030
6018
C00C
C00C
C00C
800C
C00C
C00C
E018
7038
3CF0
1FC0
ENDCHAR
STARTCHAR 01A1
ENCODING 417
SWIDTH 771 0
DWIDTH 15 0
BBX 14 15 1 0
BITMAP
0018
0FB0
1FE0
7030
6018
C00C
C00C
C00C
800C
C00C
C00C
E018
7038
3CF0
1FC0
ENDCHAR
STARTCHAR 01AF
ENCODING 431
SWIDTH 462 0
DWIDTH 9 0
BBX 9 15 1 0
BITMAP
0080
C380
C300
C300
C300
C300
C300
C300
C300
C300
C300
C300
C300
6600
7C00
ENDCHAR
STARTCHAR 01B0
ENCODING 432
SWIDTH 462 0
DWIDTH 9 0
BBX 9 15 1 0
BITMAP
0080
C380
C300
C300
C300
C300
C300
C300
C300
C300
C300
C300
C300
6600
7C00
ENDCHAR
STARTCHAR 01CD
ENCODING 461
SWIDTH 514 0
DWIDTH 10 0
BBX 10 18 1 0
BITMAP
6600
3400
1800
0000
3C00
7E00
C300
C300
C300
C300
C300
C300
C300
C300
C300
C300
FFC0
FFC0
ENDCHAR
STARTCHAR 01CE
ENCODING 462
SWIDTH 514 0
DWIDTH 10 0
BBX 10 18 1 0
BITMAP
6600
3400
1800
0000
3C00
7E00
C300
C300
C300
C300
C300
C300
C300
C300
C300
C300
FFC0
FFC0
ENDCHAR
STARTCHAR 01CF
ENCODING 463
SWIDTH 154 0
DWIDTH 3 0
BBX 5 12 -1 0
BITMAP
C8
78
00
00
30
30
30
30
30
30
30
30
ENDCHAR
STARTCHAR 01D0
ENCODING 464
SWIDTH 154 0
DWIDTH 3 0
BBX 5 12 -1 0
BITMAP
C8
78
00
00
30
30
30
30
30
30
30
30
ENDCHAR
STARTCHAR 01D1
ENCODING 465
SWIDTH 771 0
DWIDTH 15 0
BBX 14 18 1 0
BITMAP
0CC0
0480
0300
0000
0F80
1FE0
7030
6018
C00C
C00C
C00C
800C
C00C
C00C
E018
7038
3CF0
1FC0
ENDCHAR
STARTCHAR 01D2
ENCODING 466
SWIDTH 771 0
DWIDTH 15 0
BBX 14 18 1 0
BITMAP
0CC0
0480
0300
0000
0F80
1FE0
7030
6018
C00C
C00C
C00C
800C
C00C
C00C
E018
7038
3CF0
1FC0
ENDCHAR
STARTCHAR 01D3
ENCODING 467
SWIDTH 462 0
DWIDTH 9 0
BBX 8 18 1 0
BITMAP
66
24
18
00
C3
C3
C3
C3
C3
C3
C3
C3
C3
C3
C3
C3
66
7C
ENDCHAR
STARTCHAR 01D4
ENCODING 468
SWIDTH 462 0
DWIDTH 9 0
BBX 8 18 1 0
BITMAP
66
24
18
00
C3
C3
C3
C3
C3
C3
C3
C3
C3
C3
C3
C3
66
7C
ENDCHAR
STARTCHAR 02C6
ENCODING 710
SWIDTH 257 0
DWIDTH 5 0
BBX 5 2 0 15
BITMAP
78
C8
ENDCHAR
STARTCHAR 02C7
ENCODING 711
SWIDTH 257 0
DWIDTH 5 0
BBX 6 3 0 15
BITMAP
CC
48
30
ENDCHAR
STARTCHAR 02D8
ENCODING 728
SWIDTH 257 0
DWIDTH 5 0
BBX 5 2 0 15
BITMAP
88
78
ENDCHAR
STARTCHAR 02D9
ENCODING 729
SWIDTH 102 0
DWIDTH 2 0
BBX 3 3 0 15
BITMAP
E0
E0
60
ENDCHAR
STARTCHAR 02DA
ENCODING 730
SWIDTH 154 0
DWIDTH 3 0
BBX 4 4 0 15
BITMAP
60
90
90
F0
ENDCHAR
STARTCHAR 02DB
ENCODING 731
SWIDTH 154 0
DWIDTH 3 0
BBX 4 4 0 -4
BITMAP
40
80
B0
60
ENDCHAR
STARTCHAR 02DC
ENCODING 732
SWIDTH 205 0
DWIDTH 4 0
BBX 5 1 0 16
BITMAP
F8
ENDCHAR
STARTCHAR 02DD
ENCODING 733
SWIDTH 308 0
DWIDTH 6 0
BBX 6 2 0 15
BITMAP
6C
C8
ENDCHAR
STARTCHAR 0300
ENCODING 768
SWIDTH 0 0
DWIDTH 0 0
BBX 3 2 -3 15
BITMAP
C0
60
ENDCHAR
STARTCHAR 0301
ENCODING 769
SWIDTH 0 0
DWIDTH 0 0
BBX 3 2 -3 15
BITMAP
60
C0
ENDCHAR
STARTCHAR 0302
ENCODING 770
SWIDTH 0 0
DWIDTH 0 0
BBX 5 2 -5 15
BITMAP
F0
98
ENDCHAR
STARTCHAR 0303
ENCODING 771
SWIDTH 0 0
DWIDTH 0 0
BBX 5 1 -5 16
BITMAP
F8
ENDCHAR
STARTCHAR 0304
ENCODING 772
SWIDTH 0 0
DWIDTH 0 0
BBX 5 2 -5 15
BITMAP
F8
F8
ENDCHAR
STARTCHAR 0306
ENCODING 774
SWIDTH 0 0
DWIDTH 0 0
BBX 5 2 -5 15
BITMAP
88
F0
ENDCHAR
STARTCHAR 0307
ENCODING 775
SWIDTH 0 0
DWIDTH 0 0
BBX 3 3 -3 15
BITMAP
60
E0
60
ENDCHAR
STARTCHAR 0308
ENCODING 776
SWIDTH 0 0
DWIDTH 0 0
BBX 7 2 -7 15
BITMAP
EE
EE
ENDCHAR
STARTCHAR 0309
ENCODING 777
SWIDTH 0 0
DWIDTH 0 0
BBX 2 3 -2 15
BITMAP
40
C0
C0
ENDCHAR
STARTCHAR 030A
ENCODING 778
SWIDTH 0 0
DWIDTH 0 0
BBX 4 4 -4 15
BITMAP
60
90
90
F0
ENDCHAR
STARTCHAR 030B
ENCODING 779
SWIDTH 0 0
DWIDTH 0 0
BBX 6 2 -6 15
BITMAP
4C
98
ENDCHAR
STARTCHAR 030C
ENCODING 780
SWIDTH 0 0
DWIDTH 0 0
BBX 6 3 -6 15
BITMAP
CC
68
30
ENDCHAR
STARTCHAR 031B
ENCODING 795
SWIDTH 0 0
DWIDTH 0 0
BBX 2 2 -2 13
BITMAP
40
80
ENDCHAR
STARTCHAR 0323
ENCODING 803
SWIDTH 0 0
DWIDTH 0 0
BBX 3 3 -3 -5
BITMAP
40
E0
E0
ENDCHAR
STARTCHAR 0326
ENCODING 806
SWIDTH 0 0
DWIDTH 0 0
BBX 2 3 -2 -4
BITMAP
C0
80
80
ENDCHAR
STARTCHAR 0327
ENCODING 807
SWIDTH 0 0
DWIDTH 0 0
BBX 4 4 -4 -4
BITMAP
20
10
90
F0
ENDCHAR
STARTCHAR 0328
ENCODING 808
SWIDTH 0 0
DWIDTH 0 0
BBX 4 4 -4 -4
BITMAP
40
80
D0
60
ENDCHAR
STARTCHAR 0335
ENCODING 821
SWIDTH 0 0
DWIDTH 0 0
BBX 6 2 -6 3
BITMAP
FC
FC
ENDCHAR
STARTCHAR 1EA0
ENCODING 7840
SWIDTH 514 0
DWIDTH 10 0
BBX 10 19 1 -5
BITMAP
3C00
7E00
C300
C300
C300
C300
C300
C300
C300
C300
C300
C300
FFC0
FFC0
0000
0000
0800
1C00
1800
ENDCHAR
STARTCHAR 1EA1
ENCODING 7841
SWIDTH 514 0
DWIDTH 10 0
BBX 10 19 1 -5
BITMAP
3C00
7E00
C300
C300
C300
C300
C300
C300
C300
C300
C300
C300
FFC0
FFC0
0000
0000
0800
1C00
1800
ENDCHAR
STARTCHAR 1EA2
ENCODING 7842
SWIDTH 514 0
DWIDTH 10 0
BBX 10 18 1 0
BITMAP
0800
1800
1000
0000
3C00
7E00
C300
C300
C300
C300
C300
C300
C300
C300
C300
C300
FFC0
FFC0
ENDCHAR
STARTCHAR 1EA3
ENCODING 7843
SWIDTH 514 0
DWIDTH 10 0
BBX 10 18 1 0
BITMAP
0800
1800
1000
0000
3C00
7E00
C300
C300
C300
C300
C300
C300
C300
C300
C300
C300
FFC0
FFC0
ENDCHAR
STARTCHAR 1EA4
ENCODING 7844
SWIDTH 514 0
DWIDTH 10 0
BBX 10 19 1 0
BITMAP
0080
0100
3C00
2400
0200
3C00
7E00
C300
C300
C300
C300
C300
C300
C300
C300
C300
C300
FFC0
FFC0
ENDCHAR
STARTCHAR 1EA5
ENCODING 7845
SWIDTH 514 0
DWIDTH 10 0
BBX 10 19 1 0
BITMAP
0080
0100
3C00
2400
0200
3C00
7E00
C300
C300
C300
C300
C300
C300
C300
C300
C300
C300
FFC0
FFC0
ENDCHAR
STARTCHAR 1EA6
ENCODING 7846
SWIDTH 514 0
DWIDTH 10 0
BBX 11 19 0 0
BITMAP
8000
C000
1E00
1200
0100
1E00
3F00
6180
6180
6180
6180
6180
6180
6180
6180
6180
6180
7FE0
7FE0
ENDCHAR
STARTCHAR 1EA7
ENCODING 7847
SWIDTH 514 0
DWIDTH 10 0
BBX 11 19 0 0
BITMAP
8000
C000
1E00
1200
0100
1E00
3F00
6180
6180
6180
6180
6180
6180
6180
6180
6180
6180
7FE0
7FE0
ENDCHAR
STARTCHAR 1EA8
ENCODING 7848
SWIDTH 514 0
DWIDTH 10 0
BBX 10 20 1 0
BITMAP
0100
0100
0300
3D00
2400
0200
3C00
7E00
C300
C300
C300
C300
C300
C300
C300
C300
C300
C300
FFC0
FFC0
ENDCHAR
STARTCHAR 1EA9
ENCODING 7849
SWIDTH 514 0
DWIDTH 10 0
BBX 10 20 1 0
BITMAP
0100
0100
0300
3D00
2400
0200
3C00
7E00
C300
C300
C300
C300
C300
C300
C300
C300
C300
C300
FFC0
FFC0
ENDCHAR
STARTCHAR 1EAA
ENCODING 7850
SWIDTH 514 0
DWIDTH 10 0
BBX 10 19 1 0
BITMAP
0F80
0000
3C00
2400
0200
3C00
7E00
C300
C300
C300
C300
C300
C300
C300
C300
C300
C300
FFC0
FFC0
ENDCHAR
STARTCHAR 1EAB
ENCODING 7851
SWIDTH 514 0
DWIDTH 10 0
BBX 10 19 1 0
BITMAP
0F80
0000
3C00
2400
0200
3C00
7E00
C300
C300
C300
C300
C300
C300
C300
C300
C300
C300
FFC0
FFC0
ENDCHAR
STARTCHAR 1EAC
ENCODING 7852
SWIDTH 514 0
DWIDTH 10 0
BBX 10 22 1 -5
BITMAP
3C00
2400
0200
3C00
7E00
C300
C300
C300
C300
C300
C300
C300
C300
C300
C300
FFC0
FFC0
0000
0000
0800
1C00
1800
ENDCHAR
STARTCHAR 1EAD
ENCODING 7853
SWIDTH 514 0
DWIDTH 10 0
BBX 10 22 1 -5
BITMAP
3C00
2400
0200
3C00
7E00
C300
C300
C300
C300
C300
C300
C300
C300
C300
C300
FFC0
FFC0
0000
0000
0800
1C00
1800
ENDCHAR
STARTCHAR 1EAE
ENCODING 7854
SWIDTH 514 0
DWIDTH 10 0
BBX 10 20 1 0
BITMAP
0400
0C00
0800
2600
3C00
0000
3C00
7E00
C300
C300
C300
C300
C300
C300
C300
C300
C300
C300
FFC0
FFC0
ENDCHAR
STARTCHAR 1EAF
ENCODING 7855
SWIDTH 514 0
DWIDTH 10 0
BBX 10 20 1 0
BITMAP
0400
0C00
0800
2600
3C00
0000
3C00
7E00
C300
C300
C300
C300
C300
C300
C300
C300
C300
C300
FFC0
FFC0
ENDCHAR
STARTCHAR 1EB0
ENCODING 7856
SWIDTH 514 0
DWIDTH 10 0
BBX 10 20 1 0
BITMAP
2000
3000
1000
2600
3C00
0000
3C00
7E00
C300
C300
C300
C300
C300
C300
C300
C300
C300
C300
FFC0
FFC0
ENDCHAR
STARTCHAR 1EB1
ENCODING 7857
SWIDTH 514 0
DWIDTH 10 0
BBX 10 20 1 0
BITMAP
2000
3000
1000
2600
3C00
0000
3C00
7E00
C300
C300
C300
C300
C300
C300
C300
C300
C300
C300
FFC0
FFC0
ENDCHAR
STARTCHAR 1EB2
ENCODING 7858
SWIDTH 514 0
DWIDTH 10 0
BBX 10 20 1 0
BITMAP
0800
0800
1800
2600
3C00
0000
3C00
7E00
C300
C300
C300
C300
C300
C300
C300
C300
C300
C300
FFC0
FFC0
ENDCHAR
STARTCHAR 1EB3
ENCODING 7859
SWIDTH 514 0
DWIDTH 10 0
BBX 10 20 1 0
BITMAP
0800
0800
1800
2600
3C00
0000
3C00
7E00
C300
C300
C300
C300
C300
C300
C300
C300
C300
C300
FFC0
FFC0
ENDCHAR
STARTCHAR 1EB4
ENCODING 7860
SWIDTH 514 0
DWIDTH 10 0
BBX 10 19 1 1
BITMAP
3C00
0000
2600
3C00
0000
3C00
7E00
C300
C300
C300
C300
C300
C300
C300
C300
C300
C300
FFC0
FFC0
ENDCHAR
STARTCHAR 1EB5
ENCODING 7861
SWIDTH 514 0
DWIDTH 10 0
BBX 10 19 1 1
BITMAP
3C00
0000
2600
3C00
0000
3C00
7E00
C300
C300
C300
C300
C300
C300
C300
C300
C300
C300
FFC0
FFC0
ENDCHAR
STARTCHAR 1EB6
ENCODING 7862
SWIDTH 514 0
DWIDTH 10 0
BBX 10 22 1 -5
BITMAP
2600
3C00
0000
3C00
7E00
C300
C300
C300
C300
C300
C300
C300
C300
C300
C300
FFC0
FFC0
0000
0000
0800
1C00
1800
ENDCHAR
STARTCHAR 1EB7
ENCODING 7863
SWIDTH 514 0
DWIDTH 10 0
BBX 10 22 1 -5
BITMAP
2600
3C00
0000
3C00
7E00
C300
C300
C300
C300
C300
C300
C300
C300
C300
C300
FFC0
FFC0
0000
0000
0800
1C00
1800
ENDCHAR
STARTCHAR 1EB8
ENCODING 7864
SWIDTH 462 0
DWIDTH 9 0
BBX 10 19 0 -5
BITMAP
3E00
3E00
3000
3000
3000
3000
FF00
FF00
3000
3000
3000
3000
3FC0
3FC0
0000
0000
0400
0E00
0600
ENDCHAR
STARTCHAR 1EB9
ENCODING 7865
SWIDTH 462 0
DWIDTH 9 0
BBX 10 19 0 -5
BITMAP
3E00
3E00
3000
3000
3000
3000
FF00
FF00
3000
3000
3000
3000
3FC0
3FC0
0000
0000
0400
0E00
0600
ENDCHAR
STARTCHAR 1EBA
ENCODING 7866
SWIDTH 462 0
DWIDTH 9 0
BBX 10 18 0 0
BITMAP
0800
0800
0800
0000
3E00
3E00
3000
3000
3000
3000
FF00
FF00
3000
3000
3000
3000
3FC0
3FC0
ENDCHAR
STARTCHAR 1EBB
ENCODING 7867
SWIDTH 462 0
DWIDTH 9 0
BBX 10 18 0 0
BITMAP
0800
0800
0800
0000
3E00
3E00
3000
3000
3000
3000
FF00
FF00
3000
3000
3000
3000
3FC0
3FC0
ENDCHAR
STARTCHAR 1EBC
ENCODING 7868
SWIDTH 462 0
DWIDTH 9 0
BBX 10 17 0 0
BITMAP
3E00
0000
0000
3E00
3E00
3000
3000
3000
3000
FF00
FF00
3000
3000
3000
3000
3FC0
3FC0
ENDCHAR
STARTCHAR 1EBD
ENCODING 7869
SWIDTH 462 0
DWIDTH 9 0
BBX 10 17 0 0
BITMAP
3E00
0000
0000
3E00
3E00
3000
3000
3000
3000
FF00
FF00
3000
3000
3000
3000
3FC0
3FC0
ENDCHAR
STARTCHAR 1EBE
ENCODING 7870
SWIDTH 462 0
DWIDTH 9 0
BBX 10 19 0 0
BITMAP
0080
0180
1C00
3600
0000
3E00
3E00
3000
3000
3000
3000
FF00
FF00
3000
3000
3000
3000
3FC0
3FC0
ENDCHAR
STARTCHAR 1EBF
ENCODING 7871
SWIDTH 462 0
DWIDTH 9 0
BBX 10 19 0 0
BITMAP
0080
0180
1C00
3600
0000
3E00
3E00
3000
3000
3000
3000
FF00
FF00
3000
3000
3000
3000
3FC0
3FC0
ENDCHAR
STARTCHAR 1EC0
ENCODING 7872
SWIDTH 462 0
DWIDTH 9 0
BBX 11 19 -1 0
BITMAP
C000
4000
0E00
1B00
0000
1F00
1F00
1800
1800
1800
1800
7F80
7F80
1800
1800
1800
1800
1FE0
1FE0
ENDCHAR
STARTCHAR 1EC1
ENCODING 7873
SWIDTH 462 0
DWIDTH 9 0
BBX 11 19 -1 0
BITMAP
C000
4000
0E00
1B00
0000
1F00
1F00
1800
1800
1800
1800
7F80
7F80
1800
1800
1800
1800
1FE0
1FE0
ENDCHAR
STARTCHAR 1EC2
ENCODING 7874
SWIDTH 462 0
DWIDTH 9 0
BBX 10 20 0 0
BITMAP
0100
0100
0100
1D00
3600
0000
3E00
3E00
3000
3000
3000
3000
FF00
FF00
3000
3000
3000
3000
3FC0
3FC0
ENDCHAR
STARTCHAR 1EC3
ENCODING 7875
SWIDTH 462 0
DWIDTH 9 0
BBX 10 20 0 0
BITMAP
0100
0100
0100
1D00
3600
0000
3E00
3E00
3000
3000
3000
3000
FF00
FF00
3000
3000
3000
3000
3FC0
3FC0
ENDCHAR
STARTCHAR 1EC4
ENCODING 7876
SWIDTH 462 0
DWIDTH 9 0
BBX 10 19 0 0
BITMAP
0F80
0000
1C00
3600
0000
3E00
3E00
3000
3000
3000
3000
FF00
FF00
3000
3000
3000
3000
3FC0
3FC0
ENDCHAR
STARTCHAR 1EC5
ENCODING 7877
SWIDTH 462 0
DWIDTH 9 0
BBX 10 19 0 0
BITMAP
0F80
0000
1C00
3600
0000
3E00
3E00
3000
3000
3000
3000
FF00
FF00
3000
3000
3000
3000
3FC0
3FC0
ENDCHAR
STARTCHAR 1EC6
ENCODING 7878
SWIDTH 462 0
DWIDTH 9 0
BBX 10 22 0 -5
BITMAP
1C00
3600
0000
3E00
3E00
3000
3000
3000
3000
FF00
FF00
3000
3000
3000
3000
3FC0
3FC0
0000
0000
0400
0E00
0600
ENDCHAR
STARTCHAR 1EC7
ENCODING 7879
SWIDTH 462 0
DWIDTH 9 0
BBX 10 22 0 -5
BITMAP
1C00
3600
0000
3E00
3E00
3000
3000
3000
3000
FF00
FF00
3000
3000
3000
3000
3FC0
3FC0
0000
0000
0400
0E00
0600
ENDCHAR
STARTCHAR 1EC8
ENCODING 7880
SWIDTH 154 0
DWIDTH 3 0
BBX 2 13 1 0
BITMAP
40
C0
80
C0
00
C0
C0
C0
C0
C0
C0
C0
C0
ENDCHAR
STARTCHAR 1EC9
ENCODING 7881
SWIDTH 154 0
DWIDTH 3 0
BBX 2 13 1 0
BITMAP
40
C0
80
C0
00
C0
C0
C0
C0
C0
C0
C0
C0
ENDCHAR
STARTCHAR 1ECA
ENCODING 7882
SWIDTH 154 0
DWIDTH 3 0
BBX 5 20 -1 -5
BITMAP
20
F8
30
30
00
00
00
30
30
30
30
30
30
30
30
00
00
20
70
30
ENDCHAR
STARTCHAR 1ECB
ENCODING 7883
SWIDTH 154 0
DWIDTH 3 0
BBX 5 20 -1 -5
BITMAP
20
F8
30
30
00
00
00
30
30
30
30
30
30
30
30
00
00
20
70
30
ENDCHAR
STARTCHAR 1ECC
ENCODING 7884
SWIDTH 771 0
DWIDTH 15 0
BBX 14 19 1 -5
BITMAP
0F80
1FE0
7030
6018
C00C
C00C
C00C
800C
C00C
C00C
E018
7038
3CF0
1FC0
0000
0000
0300
0300
0300
ENDCHAR
STARTCHAR 1ECD
ENCODING 7885
SWIDTH 771 0
DWIDTH 15 0
BBX 14 19 1 -5
BITMAP
0F80
1FE0
7030
6018
C00C
C00C
C00C
800C
C00C
C00C
E018
7038
3CF0
1FC0
0000
0000
0300
0300
0300
ENDCHAR
STARTCHAR 1ECE
ENCODING 7886
SWIDTH 771 0
DWIDTH 15 0
BBX 14 18 1 0
BITMAP
0100
0200
0200
0000
0F80
1FE0
7030
6018
C00C
C00C
C00C
800C
C00C
C00C
E018
7038
3CF0
1FC0
ENDCHAR
STARTCHAR 1ECF
ENCODING 7887
SWIDTH 771 0
DWIDTH 15 0
BBX 14 18 1 0
BITMAP
0100
0200
0200
0000
0F80
1FE0
7030
6018
C00C
C00C
C00C
800C
C00C
C00C
E018
7038
3CF0
1FC0
ENDCHAR
STARTCHAR 1ED0
ENCODING 7888
SWIDTH 771 0
DWIDTH 15 0
BBX 14 19 1 0
BITMAP
0030
0020
0780
0480
0800
0F80
1FE0
7030
6018
C00C
C00C
C00C
800C
C00C
C00C
E018
7038
3CF0
1FC0
ENDCHAR
STARTCHAR 1ED1
ENCODING 7889
SWIDTH 771 0
DWIDTH 15 0
BBX 14 19 1 0
BITMAP
0030
0020
0780
0480
0800
0F80
1FE0
7030
6018
C00C
C00C
C00C
800C
C00C
C00C
E018
7038
3CF0
1FC0
ENDCHAR
STARTCHAR 1ED2
ENCODING 7890
SWIDTH 771 0
DWIDTH 15 0
BBX 14 19 1 0
BITMAP
2000
3000
0780
0480
0800
0F80
1FE0
7030
6018
C00C
C00C
C00C
800C
C00C
C00C
E018
7038
3CF0
1FC0
ENDCHAR
STARTCHAR 1ED3
ENCODING 7891
SWIDTH 771 0
DWIDTH 15 0
BBX 14 19 1 0
BITMAP
2000
3000
0780
0480
0800
0F80
1FE0
7030
6018
C00C
C00C
C00C
800C
C00C
C00C
E018
7038
3CF0
1FC0
ENDCHAR
STARTCHAR 1ED4
ENCODING 7892
SWIDTH 771 0
DWIDTH 15 0
BBX 14 20 1 0
BITMAP
0020
0020
0040
07E0
0480
0800
0F80
1FE0
7030
6018
C00C
C00C
C00C
800C
C00C
C00C
E018
7038
3CF0
1FC0
ENDCHAR
STARTCHAR 1ED5
ENCODING 7893
SWIDTH 771 0
DWIDTH 15 0
BBX 14 20 1 0
BITMAP
0020
0020
0040
07E0
0480
0800
0F80
1FE0
7030
6018
C00C
C00C
C00C
800C
C00C
C00C
E018
7038
3CF0
1FC0
ENDCHAR
STARTCHAR 1ED6
ENCODING 7894
SWIDTH 771 0
DWIDTH 15 0
BBX 14 19 1 0
BITMAP
01E0
0000
0780
0480
0800
0F80
1FE0
7030
6018
C00C
C00C
C00C
800C
C00C
C00C
E018
7038
3CF0
1FC0
ENDCHAR
STARTCHAR 1ED7
ENCODING 7895
SWIDTH 771 0
DWIDTH 15 0
BBX 14 19 1 0
BITMAP
01E0
0000
0780
0480
0800
0F80
1FE0
7030
6018
C00C
C00C
C00C
800C
C00C
C00C
E018
7038
3CF0
1FC0
ENDCHAR
STARTCHAR 1ED8
ENCODING 7896
SWIDTH 771 0
DWIDTH 15 0
BBX 14 22 1 -5
BITMAP
0780
0480
0800
0F80
1FE0
7030
6018
C00C
C00C
C00C
800C
C00C
C00C
E018
7038
3CF0
1FC0
0000
0000
0300
0300
0300
ENDCHAR
STARTCHAR 1ED9
ENCODING 7897
SWIDTH 771 0
DWIDTH 15 0
BBX 14 22 1 -5
BITMAP
0780
0480
0800
0F80
1FE0
7030
6018
C00C
C00C
C00C
800C
C00C
C00C
E018
7038
3CF0
1FC0
0000
0000
0300
0300
0300
ENDCHAR
STARTCHAR 1EDA
ENCODING 7898
SWIDTH 771 0
DWIDTH 15 0
BBX 14 17 1 0
BITMAP
0180
0300
0018
0FB0
1FE0
7030
6018
C00C
C00C
C00C
800C
C00C
C00C
E018
7038
3CF0
1FC0
ENDCHAR
STARTCHAR 1EDB
ENCODING 7899
SWIDTH 771 0
DWIDTH 15 0
BBX 14 17 1 0
BITMAP
0180
0300
0018
0FB0
1FE0
7030
6018
C00C
C00C
C00C
800C
C00C
C00C
E018
7038
3CF0
1FC0
ENDCHAR
STARTCHAR 1EDC
ENCODING 7900
SWIDTH 771 0
DWIDTH 15 0
BBX 14 17 1 0
BITMAP
0600
0200
0018
0FB0
1FE0
7030
6018
C00C
C00C
C00C
800C
C00C
C00C
E018
7038
3CF0
1FC0
ENDCHAR
STARTCHAR 1EDD
ENCODING 7901
SWIDTH 771 0
DWIDTH 15 0
BBX 14 17 1 0
BITMAP
0600
0200
0018
0FB0
1FE0
7030
6018
C00C
C00C
C00C
800C
C00C
C00C
E018
7038
3CF0
1FC0
ENDCHAR
STARTCHAR 1EDE
ENCODING 7902
SWIDTH 771 0
DWIDTH 15 0
BBX 14 18 1 0
BITMAP
0100
0200
0200
0018
0FB0
1FE0
7030
6018
C00C
C00C
C00C
800C
C00C
C00C
E018
7038
3CF0
1FC0
ENDCHAR
STARTCHAR 1EDF
ENCODING 7903
SWIDTH 771 0
DWIDTH 15 0
BBX 14 18 1 0
BITMAP
0100
0200
0200
0018
0FB0
1FE0
7030
6018
C00C
C00C
C00C
800C
C00C
C00C
E018
7038
3CF0
1FC0
ENDCHAR
STARTCHAR 1EE0
ENCODING 7904
SWIDTH 771 0
DWIDTH 15 0
BBX 14 17 1 0
BITMAP
0F80
0000
0018
0FB0
1FE0
7030
6018
C00C
C00C
C00C
800C
C00C
C00C
E018
7038
3CF0
1FC0
ENDCHAR
STARTCHAR 1EE1
ENCODING 7905
SWIDTH 771 0
DWIDTH 15 0
BBX 14 17 1 0
BITMAP
0F80
0000
0018
0FB0
1FE0
7030
6018
C00C
C00C
C00C
800C
C00C
C00C
E018
7038
3CF0
1FC0
ENDCHAR
STARTCHAR 1EE2
ENCODING 7906
SWIDTH 771 0
DWIDTH 15 0
BBX 14 20 1 -5
BITMAP
0018
0FB0
1FE0
7030
6018
C00C
C00C
C00C
800C
C00C
C00C
E018
7038
3CF0
1FC0
0000
0000
0300
0300
0300
ENDCHAR
STARTCHAR 1EE3
ENCODING 7907
SWIDTH 771 0
DWIDTH 15 0
BBX 14 20 1 -5
BITMAP
0018
0FB0
1FE0
7030
6018
C00C
C00C
C00C
800C
C00C
C00C
E018
7038
3CF0
1FC0
0000
0000
0300
0300
0300
ENDCHAR
STARTCHAR 1EE4
ENCODING 7908
SWIDTH 462 0
DWIDTH 9 0
BBX 8 19 1 -5
BITMAP
C3
C3
C3
C3
C3
C3
C3
C3
C3
C3
C3
C3
66
7C
00
00
18
18
18
ENDCHAR
STARTCHAR 1EE5
ENCODING 7909
SWIDTH 462 0
DWIDTH 9 0
BBX 8 19 1 -5
BITMAP
C3
C3
C3
C3
C3
C3
C3
C3
C3
C3
C3
C3
66
7C
00
00
18
18
18
ENDCHAR
STARTCHAR 1EE6
ENCODING 7910
SWIDTH 462 0
DWIDTH 9 0
BBX 8 18 1 0
BITMAP
08
10
10
00
C3
C3
C3
C3
C3
C3
C3
C3
C3
C3
C3
C3
66
7C
ENDCHAR
STARTCHAR 1EE7
ENCODING 7911
SWIDTH 462 0
DWIDTH 9 0
BBX 8 18 1 0
BITMAP
08
10
10
00
C3
C3
C3
C3
C3
C3
C3
C3
C3
C3
C3
C3
66
7C
ENDCHAR
STARTCHAR 1EE8
ENCODING 7912
SWIDTH 462 0
DWIDTH 9 0
BBX 9 17 1 0
BITMAP
0C00
1800
0080
C380
C300
C300
C300
C300
C300
C300
C300
C300
C300
C300
C300
6600
7C00
ENDCHAR
STARTCHAR 1EE9
ENCODING 7913
SWIDTH 462 0
DWIDTH 9 0
BBX 9 17 1 0
BITMAP
0C00
1800
0080
C380
C300
C300
C300
C300
C300
C300
C300
C300
C300
C300
C300
6600
7C00
ENDCHAR
STARTCHAR 1EEA
ENCODING 7914
SWIDTH 462 0
DWIDTH 9 0
BBX 9 17 1 0
BITMAP
3000
1000
0080
C380
C300
C300
C300
C300
C300
C300
C300
C300
C300
C300
C300
6600
7C00
ENDCHAR
STARTCHAR 1EEB
ENCODING 7915
SWIDTH 462 0
DWIDTH 9 0
BBX 9 17 1 0
BITMAP
3000
1000
0080
C380
C300
C300
C300
C300
C300
C300
C300
C300
C300
C300
C300
6600
7C00
ENDCHAR
STARTCHAR 1EEC
ENCODING 7916
SWIDTH 462 0
DWIDTH 9 0
BBX 9 18 1 0
BITMAP
0800
1000
1000
0080
C380
C300
C300
C300
C300
C300
C300
C300
C300
C300
C300
C300
6600
7C00
ENDCHAR
STARTCHAR 1EED
ENCODING 7917
SWIDTH 462 0
DWIDTH 9 0
BBX 9 18 1 0
BITMAP
0800
1000
1000
0080
C380
C300
C300
C300
C300
C300
C300
C300
C300
C300
C300
C300
6600
7C00
ENDCHAR
STARTCHAR 1EEE
ENCODING 7918
SWIDTH 462 0
DWIDTH 9 0
BBX 9 17 1 0
BITMAP
7C00
0000
0080
C380
C300
C300
C300
C300
C300
C300
C300
C300
C300
C300
C300
6600
7C00
ENDCHAR
STARTCHAR 1EEF
ENCODING 7919
SWIDTH 462 0
DWIDTH 9 0
BBX 9 17 1 0
BITMAP
7C00
0000
0080
C380
C300
C300
C300
C300
C300
C300
C300
C300
C300
C300
C300
6600
7C00
ENDCHAR
STARTCHAR 1EF0
ENCODING 7920
SWIDTH 462 0
DWIDTH 9 0
BBX 9 20 1 -5
BITMAP
0080
C380
C300
C300
C300
C300
C300
C300
C300
C300
C300
C300
C300
6600
7C00
0000
0000
1800
1800
1800
ENDCHAR
STARTCHAR 1EF1
ENCODING 7921
SWIDTH 462 0
DWIDTH 9 0
BBX 9 20 1 -5
BITMAP
0080
C380
C300
C300
C300
C300
C300
C300
C300
C300
C300
C300
C300
6600
7C00
0000
0000
1800
1800
1800
ENDCHAR
STARTCHAR 1EF2
ENCODING 7922
SWIDTH 462 0
DWIDTH 9 0
BBX 8 17 1 0
BITMAP
30
10
00
C3
C3
C3
C3
C3
C3
C3
C3
C7
7E
38
18
18
18
ENDCHAR
STARTCHAR 1EF3
ENCODING 7923
SWIDTH 462 0
DWIDTH 9 0
BBX 8 17 1 0
BITMAP
30
10
00
C3
C3
C3
C3
C3
C3
C3
C3
C7
7E
38
18
18
18
ENDCHAR
STARTCHAR 1EF4
ENCODING 7924
SWIDTH 462 0
DWIDTH 9 0
BBX 8 19 1 -5
BITMAP
C3
C3
C3
C3
C3
C3
C3
C3
C7
7E
38
18
18
18
00
00
10
38
18
ENDCHAR
STARTCHAR 1EF5
ENCODING 7925
SWIDTH 462 0
DWIDTH 9 0
BBX 8 19 1 -5
BITMAP
C3
C3
C3
C3
C3
C3
C3
C3
C7
7E
38
18
18
18
00
00
10
38
18
ENDCHAR
STARTCHAR 1EF6
ENCODING 7926
SWIDTH 462 0
DWIDTH 9 0
BBX 8 18 1 0
BITMAP
18
10
10
00
C3
C3
C3
C3
C3
C3
C3
C3
C7
7E
38
18
18
18
ENDCHAR
STARTCHAR 1EF7
ENCODING 7927
SWIDTH 462 0
DWIDTH 9 0
BBX 8 18 1 0
BITMAP
18
10
10
00
C3
C3
C3
C3
C3
C3
C3
C3
C7
7E
38
18
18
18
ENDCHAR
STARTCHAR 1EF8
ENCODING 7928
SWIDTH 462 0
DWIDTH 9 0
BBX 8 17 1 0
BITMAP
7C
00
00
C3
C3
C3
C3
C3
C3
C3
C3
C7
7E
38
18
18
18
ENDCHAR
STARTCHAR 1EF9
ENCODING 7929
SWIDTH 462 0
DWIDTH 9 0
BBX 8 17 1 0
BITMAP
7C
00
00
C3
C3
C3
C3
C3
C3
C3
C3
C7
7E
38
18
18
18
ENDCHAR
STARTCHAR 2013
ENCODING 8211
SWIDTH 565 0
DWIDTH 11 0
BBX 9 2 1 4
BITMAP
FF80
FF80
ENDCHAR
STARTCHAR 2014
ENCODING 8212
SWIDTH 771 0
DWIDTH 15 0
BBX 14 2 1 4
BITMAP
FFFC
FFFC
ENDCHAR
STARTCHAR 2018
ENCODING 8216
SWIDTH 205 0
DWIDTH 4 0
BBX 3 4 1 10
BITMAP
60
40
40
C0
ENDCHAR
STARTCHAR 2019
ENCODING 8217
SWIDTH 205 0
DWIDTH 4 0
BBX 3 4 1 10
BITMAP
60
40
C0
80
ENDCHAR
STARTCHAR 201A
ENCODING 8218
SWIDTH 205 0
DWIDTH 4 0
BBX 2 3 1 -2
BITMAP
40
C0
80
ENDCHAR
STARTCHAR 201C
ENCODING 8220
SWIDTH 360 0
DWIDTH 7 0
BBX 6 4 1 10
BITMAP
24
4C
48
C8
ENDCHAR
STARTCHAR 201D
ENCODING 8221
SWIDTH 360 0
DWIDTH 7 0
BBX 6 4 1 10
BITMAP
6C
48
C8
98
ENDCHAR
STARTCHAR 201E
ENCODING 8222
SWIDTH 411 0
DWIDTH 8 0
BBX 6 3 1 -2
BITMAP
4C
C8
88
ENDCHAR
STARTCHAR 2020
ENCODING 8224
SWIDTH 411 0
DWIDTH 8 0
BBX 6 9 1 5
BITMAP
30
30
FC
30
30
30
30
30
30
ENDCHAR
STARTCHAR 2021
ENCODING 8225
SWIDTH 411 0
DWIDTH 8 0
BBX 6 9 1 5
BITMAP
30
30
FC
30
30
30
FC
30
30
ENDCHAR
STARTCHAR 2022
ENCODING 8226
SWIDTH 308 0
DWIDTH 6 0
BBX 4 4 1 3
BITMAP
F0
F0
F0
60
ENDCHAR
STARTCHAR 2026
ENCODING 8230
SWIDTH 668 0
DWIDTH 13 0
BBX 11 3 1 0
BITMAP
4440
EEE0
EEE0
ENDCHAR
STARTCHAR 2030
ENCODING 8240
SWIDTH 1234 0
DWIDTH 24 0
BBX 23 14 1 0
BITMAP
381800
7C1000
C63000
C66000
C64000
7C8000
398000
010000
027C7C
064646
0CC6C6
08C6C6
186666
303C7C
ENDCHAR
STARTCHAR 2039
ENCODING 8249
SWIDTH 360 0
DWIDTH 7 0
BBX 5 8 1 2
BITMAP
18
30
60
C0
C0
60
30
18
ENDCHAR
STARTCHAR 203A
ENCODING 8250
SWIDTH 360 0
DWIDTH 7 0
BBX 4 8 2 2
BITMAP
80
C0
60
30
30
60
C0
80
ENDCHAR
STARTCHAR 2044
ENCODING 8260
SWIDTH 668 0
DWIDTH 13 0
BBX 11 14 1 0
BITMAP
0060
0040
00C0
0180
0100
0200
0600
0400
0800
1800
3000
2000
6000
C000
ENDCHAR
STARTCHAR 20AC
ENCODING 8364
SWIDTH 617 0
DWIDTH 12 0
BBX 11 14 1 0
BITMAP
01E0
07E0
0C00
1800
3000
FF80
FF80
3000
FF80
3000
1800
1C00
0FE0
03E0
ENDCHAR
STARTCHAR 2122
ENCODING 8482
SWIDTH 771 0
DWIDTH 15 0
BBX 14 8 1 6
BITMAP
F84C
FE6C
27FC
26CC
264C
264C
264C
264C
ENDCHAR
STARTCHAR 2190
ENCODING 8592
SWIDTH 822 0
DWIDTH 16 0
BBX 13 8 2 3
BITMAP
1800
3000
6000
FFF8
FFF8
6000
3000
1800
ENDCHAR
STARTCHAR 2191
ENCODING 8593
SWIDTH 565 0
DWIDTH 11 0
BBX 9 14 1 0
BITMAP
0800
1C00
3E00
6B00
C980
0800
0800
0800
0800
0800
0800
0800
0800
0800
ENDCHAR
STARTCHAR 2192
ENCODING 8594
SWIDTH 822 0
DWIDTH 16 0
BBX 14 10 1 2
BITMAP
0040
0060
0030
0018
FFFC
FFFC
0018
0030
0060
0040
ENDCHAR
STARTCHAR 2193
ENCODING 8595
SWIDTH 565 0
DWIDTH 11 0
BBX 9 14 1 0
BITMAP
0800
0800
0800
0800
0800
0800
0800
0800
0800
C880
6980
3B00
1E00
0C00
ENDCHAR
STARTCHAR 2194
ENCODING 8596
SWIDTH 874 0
DWIDTH 17 0
BBX 14 8 2 3
BITMAP
1860
3030
6018
FFFC
FFFC
6018
3030
1860
ENDCHAR
STARTCHAR 2195
ENCODING 8597
SWIDTH 617 0
DWIDTH 12 0
BBX 10 14 1 0
BITMAP
0400
1E00
3F00
6D80
CCC0
0C00
0C00
0C00
0C00
0C40
ECC0
3F80
1E00
0C00
ENDCHAR
STARTCHAR 2196
ENCODING 8598
SWIDTH 617 0
DWIDTH 12 0
BBX 10 10 1 1
BITMAP
FE00
E000
F000
B800
9C00
8E00
8700
0380
01C0
00C0
ENDCHAR
STARTCHAR 2197
ENCODING 8599
SWIDTH 617 0
DWIDTH 12 0
BBX 11 10 1 1
BITMAP
0FE0
00E0
01E0
0360
0660
0C60
1860
3000
6000
C000
ENDCHAR
STARTCHAR 2198
ENCODING 8600
SWIDTH 617 0
DWIDTH 12 0
BBX 11 11 1 1
BITMAP
4000
E000
7000
3800
1C60
0E60
0760
03E0
01E0
0FE0
0FE0
ENDCHAR
STARTCHAR 2199
ENCODING 8601
SWIDTH 617 0
DWIDTH 12 0
BBX 10 11 1 1
BITMAP
0040
00C0
0180
0300
8600
8C00
9800
B000
E000
FE00
FE00
ENDCHAR
STARTCHAR 2202
ENCODING 8706
SWIDTH 565 0
DWIDTH 11 0
BBX 9 14 1 0
BITMAP
3800
3C00
0E00
0700
0300
1980
7F80
6380
C180
C180
C180
C300
7700
3E00
ENDCHAR
STARTCHAR 2205
ENCODING 8709
SWIDTH 720 0
DWIDTH 14 0
BBX 12 12 1 1
BITMAP
0F10
30E0
6060
40A0
8110
8210
8410
8810
5020
6060
70C0
8F00
ENDCHAR
STARTCHAR 220F
ENCODING 8719
SWIDTH 565 0
DWIDTH 11 0
BBX 10 16 1 -2
BITMAP
FFC0
FFC0
6180
6180
6180
6180
6180
6180
6180
6180
6180
6180
6180
6180
6180
6180
ENDCHAR
STARTCHAR 2211
ENCODING 8721
SWIDTH 462 0
DWIDTH 9 0
BBX 7 16 1 -2
BITMAP
FE
FE
40
60
30
30
18
18
18
18
30
30
60
40
FE
FE
ENDCHAR
STARTCHAR 2212
ENCODING 8722
SWIDTH 514 0
DWIDTH 10 0
BBX 9 1 1 6
BITMAP
FF80
ENDCHAR
STARTCHAR 221A
ENCODING 8730
SWIDTH 668 0
DWIDTH 13 0
BBX 11 16 1 -2
BITMAP
01E0
01E0
0300
0300
0300
0200
0600
0600
C400
C400
6C00
6C00
6800
3800
3800
3000
ENDCHAR
STARTCHAR 221E
ENCODING 8734
SWIDTH 771 0
DWIDTH 15 0
BBX 14 6 1 4
BITMAP
78F0
CD88
830C
830C
C788
7CF8
ENDCHAR
STARTCHAR 222B
ENCODING 8747
SWIDTH 462 0
DWIDTH 9 0
BBX 8 16 1 -2
BITMAP
07
0E
0C
0C
08
08
18
18
18
10
10
30
30
30
60
E0
ENDCHAR
STARTCHAR 2248
ENCODING 8776
SWIDTH 514 0
DWIDTH 10 0
BBX 9 6 1 3
BITMAP
FF80
0F00
0000
0000
FF80
0700
ENDCHAR
STARTCHAR 2260
ENCODING 8800
SWIDTH 514 0
DWIDTH 10 0
BBX 9 9 1 2
BITMAP
0400
0400
FF80
0800
1800
1800
FF80
3000
3000
ENDCHAR
STARTCHAR 2264
ENCODING 8804
SWIDTH 514 0
DWIDTH 10 0
BBX 9 8 1 2
BITMAP
0380
3F00
E000
F800
0F80
0080
0000
FF80
ENDCHAR
STARTCHAR 2265
ENCODING 8805
SWIDTH 514 0
DWIDTH 10 0
BBX 9 8 1 2
BITMAP
E000
7E00
0780
0F80
F800
8000
0000
FF80
ENDCHAR
STARTCHAR 25CA
ENCODING 9674
SWIDTH 462 0
DWIDTH 9 0
BBX 7 10 1 2
BITMAP
38
2C
64
46
C2
C2
46
64
2C
38
ENDCHAR
ENDFONT
